<?xml version="1.0" encoding="UTF-8" standalone="no"?>
<!DOCTYPE svg PUBLIC "-//W3C//DTD SVG 1.1//EN" "http://www.w3.org/Graphics/SVG/1.1/DTD/svg11.dtd">
<svg width="100%" height="100%" viewBox="0 0 130 130" version="1.1" xmlns="http://www.w3.org/2000/svg" xmlns:xlink="http://www.w3.org/1999/xlink" xml:space="preserve" xmlns:serif="http://www.serif.com/" style="fill-rule:evenodd;clip-rule:evenodd;stroke-linejoin:round;stroke-miterlimit:2;">
    <g transform="matrix(1,0,0,1,-98.9672,-97.685)">
        <g transform="matrix(1.71053,0,0,1.71053,-89.1907,-174.289)">
            <circle cx="148" cy="197" r="38" style="fill:rgb(0,140,255);"/>
        </g>
        <g transform="matrix(0.87234,0,0,0.87234,-118.235,-230.304)">
            <path d="M322.008,381.541C322.007,381.525 322.007,381.509 322.007,381.493C322.007,380.669 322.676,380 323.5,380C324.324,380 324.993,380.669 324.993,381.493C324.993,381.509 324.993,381.525 324.992,381.541L324.814,387.064C324.788,387.881 325.424,388.568 326.241,388.604C327.057,388.64 327.751,388.012 327.797,387.196L328.108,381.679C328.109,381.663 328.11,381.647 328.111,381.631C328.184,380.81 328.91,380.203 329.731,380.276C330.552,380.349 331.159,381.074 331.086,381.895C331.085,381.911 331.083,381.927 331.081,381.943L330.416,387.428C330.317,388.24 330.89,388.98 331.7,389.088C332.511,389.196 333.257,388.633 333.375,387.824L334.172,382.356C334.175,382.34 334.177,382.324 334.18,382.308C334.325,381.497 335.102,380.956 335.913,381.101C336.724,381.246 337.265,382.023 337.12,382.834C337.117,382.85 337.114,382.866 337.111,382.881L335.963,388.286C335.793,389.086 336.298,389.874 337.096,390.053C337.893,390.233 338.687,389.737 338.876,388.942L340.153,383.566C340.157,383.55 340.161,383.535 340.165,383.519C340.381,382.724 341.202,382.254 341.998,382.47C342.793,382.686 343.263,383.507 343.047,384.303C343.043,384.318 343.038,384.334 343.033,384.349L341.412,389.631C341.173,390.413 341.606,391.242 342.385,391.491C343.164,391.741 343.998,391.317 344.256,390.541L346.004,385.299C346.009,385.284 346.014,385.269 346.02,385.254C346.305,384.481 347.165,384.085 347.938,384.371C348.711,384.657 349.107,385.516 348.821,386.289C348.815,386.304 348.809,386.319 348.803,386.334L346.722,391.453C346.414,392.21 346.772,393.074 347.526,393.391C348.28,393.708 349.148,393.36 349.474,392.611L351.678,387.543C351.684,387.529 351.691,387.514 351.698,387.5C352.051,386.755 352.942,386.437 353.687,386.79C354.431,387.142 354.75,388.034 354.397,388.778C354.39,388.793 354.383,388.807 354.375,388.822L351.85,393.736C351.476,394.463 351.757,395.356 352.479,395.738C353.202,396.121 354.098,395.851 354.489,395.133L357.132,390.28C357.14,390.266 357.147,390.252 357.156,390.238C357.573,389.528 358.489,389.29 359.199,389.707C359.91,390.124 360.148,391.04 359.731,391.751C359.723,391.764 359.714,391.778 359.706,391.792L356.756,396.464C356.319,397.155 356.52,398.069 357.206,398.514C357.892,398.959 358.808,398.769 359.261,398.088L362.323,393.488C362.331,393.475 362.341,393.462 362.35,393.449C362.828,392.778 363.762,392.621 364.433,393.1C365.103,393.578 365.26,394.512 364.781,395.182C364.772,395.196 364.762,395.208 364.753,395.221L361.401,399.614C360.905,400.264 361.024,401.192 361.668,401.696C362.313,402.2 363.242,402.092 363.753,401.454L367.209,397.142C367.219,397.13 367.23,397.118 367.24,397.105C367.776,396.479 368.719,396.406 369.345,396.942C369.971,397.478 370.045,398.421 369.509,399.047C369.498,399.06 369.488,399.072 369.477,399.083L365.75,403.163C365.199,403.767 365.235,404.702 365.832,405.26C366.429,405.819 367.365,405.794 367.931,405.203L371.754,401.214C371.765,401.203 371.776,401.191 371.788,401.18C372.377,400.604 373.323,400.614 373.899,401.203C374.476,401.793 374.465,402.739 373.876,403.315C373.865,403.326 373.853,403.337 373.841,403.348L369.768,407.082C369.166,407.635 369.12,408.57 369.665,409.179C370.21,409.788 371.144,409.845 371.76,409.307L375.921,405.672C375.933,405.661 375.945,405.651 375.958,405.641C376.596,405.119 377.537,405.213 378.059,405.851C378.581,406.488 378.487,407.43 377.849,407.952C377.837,407.962 377.824,407.972 377.811,407.982L373.425,411.341C372.775,411.839 372.647,412.765 373.136,413.421C373.626,414.076 374.551,414.215 375.212,413.734L379.678,410.48C379.691,410.471 379.704,410.462 379.717,410.453C380.399,409.989 381.328,410.166 381.792,410.847C382.255,411.529 382.078,412.458 381.397,412.922C381.384,412.931 381.37,412.94 381.357,412.948L376.69,415.907C376,416.345 375.79,417.257 376.219,417.953C376.649,418.648 377.558,418.869 378.259,418.448L382.995,415.602C383.009,415.594 383.023,415.586 383.037,415.578C383.756,415.176 384.667,415.435 385.068,416.154C385.47,416.874 385.211,417.784 384.491,418.186C384.477,418.194 384.463,418.201 384.449,418.209L379.539,420.743C378.813,421.118 378.523,422.008 378.889,422.739C379.256,423.47 380.142,423.771 380.877,423.413L385.846,420.997C385.861,420.99 385.875,420.983 385.89,420.976C386.642,420.64 387.526,420.978 387.863,421.73C388.199,422.482 387.861,423.366 387.109,423.703C387.094,423.709 387.079,423.716 387.064,423.722L381.95,425.813C381.193,426.122 380.826,426.983 381.126,427.743C381.426,428.504 382.283,428.881 383.047,428.59L388.21,426.622C388.225,426.617 388.24,426.611 388.255,426.606C389.034,426.337 389.885,426.752 390.153,427.531C390.422,428.31 390.007,429.161 389.228,429.429C389.213,429.434 389.198,429.439 389.182,429.444L383.903,431.075C383.122,431.316 382.68,432.141 382.912,432.925C383.144,433.709 383.963,434.161 384.75,433.938L390.067,432.435C390.083,432.43 390.098,432.426 390.114,432.422C390.913,432.224 391.724,432.712 391.923,433.512C392.121,434.312 391.633,435.122 390.833,435.321C390.818,435.325 390.802,435.328 390.786,435.332L385.383,436.489C384.584,436.661 384.071,437.443 384.233,438.245C384.394,439.046 385.171,439.569 385.974,439.417L391.403,438.389C391.419,438.386 391.435,438.383 391.451,438.38C392.265,438.253 393.029,438.811 393.156,439.625C393.283,440.44 392.726,441.204 391.911,441.331C391.895,441.334 391.88,441.336 391.864,441.338L386.38,442.014C385.568,442.114 384.988,442.848 385.078,443.66C385.168,444.473 385.896,445.062 386.709,444.981L392.208,444.437C392.224,444.436 392.24,444.434 392.256,444.433C393.078,444.379 393.79,445.002 393.845,445.824C393.899,446.647 393.276,447.358 392.454,447.413C392.438,447.414 392.422,447.415 392.406,447.416L386.884,447.604C386.066,447.632 385.424,448.312 385.442,449.129C385.46,449.947 386.132,450.598 386.95,450.589L392.475,450.533C392.491,450.533 392.507,450.533 392.523,450.534C393.347,450.552 394.001,451.236 393.983,452.06C393.965,452.884 393.281,453.538 392.457,453.519C392.441,453.519 392.425,453.518 392.409,453.518L386.891,453.217C386.075,453.173 385.375,453.793 385.32,454.609C385.266,455.425 385.878,456.133 386.693,456.197L392.202,456.629C392.218,456.631 392.234,456.632 392.25,456.634C393.069,456.725 393.66,457.464 393.569,458.283C393.478,459.102 392.739,459.693 391.92,459.602C391.904,459.6 391.888,459.598 391.872,459.596L386.403,458.809C385.594,458.693 384.841,459.249 384.715,460.057C384.589,460.865 385.136,461.624 385.943,461.76L391.391,462.677C391.407,462.68 391.423,462.683 391.439,462.686C392.247,462.849 392.77,463.637 392.607,464.445C392.444,465.253 391.656,465.776 390.848,465.613C390.832,465.61 390.817,465.607 390.801,465.603L385.423,464.336C384.627,464.149 383.828,464.636 383.631,465.43C383.434,466.223 383.912,467.028 384.703,467.234L390.049,468.63C390.065,468.634 390.08,468.638 390.096,468.643C390.886,468.877 391.338,469.708 391.104,470.498C390.87,471.288 390.039,471.74 389.249,471.506C389.233,471.502 389.218,471.497 389.203,471.492L383.958,469.755C383.181,469.497 382.343,469.913 382.076,470.686C381.81,471.459 382.215,472.302 382.985,472.578L388.187,474.441C388.202,474.446 388.217,474.452 388.232,474.458C388.998,474.76 389.375,475.628 389.072,476.395C388.769,477.161 387.901,477.538 387.135,477.235C387.12,477.229 387.105,477.223 387.09,477.217L382.019,475.023C381.269,474.698 380.397,475.037 380.063,475.784C379.729,476.53 380.058,477.406 380.801,477.749L385.818,480.064C385.832,480.071 385.847,480.078 385.861,480.085C386.598,480.454 386.896,481.352 386.527,482.089C386.158,482.825 385.26,483.124 384.523,482.755C384.509,482.747 384.494,482.74 384.48,482.732L379.623,480.098C378.904,479.709 378.006,479.97 377.607,480.684C377.209,481.398 377.459,482.299 378.168,482.706L382.961,485.456C382.975,485.464 382.989,485.472 383.002,485.48C383.704,485.913 383.921,486.834 383.489,487.535C383.056,488.237 382.135,488.454 381.434,488.022C381.42,488.013 381.406,488.004 381.393,487.996L376.787,484.943C376.106,484.491 375.188,484.671 374.728,485.348C374.268,486.024 374.437,486.944 375.108,487.412L379.639,490.574C379.652,490.583 379.665,490.593 379.678,490.602C380.338,491.096 380.474,492.032 379.981,492.692C379.487,493.353 378.551,493.488 377.891,492.995C377.878,492.985 377.865,492.975 377.853,492.965L373.535,489.518C372.896,489.007 371.965,489.106 371.448,489.739C370.93,490.372 371.017,491.303 371.644,491.829L375.878,495.379C375.89,495.389 375.902,495.4 375.914,495.411C376.528,495.96 376.58,496.905 376.031,497.519C375.481,498.133 374.536,498.185 373.922,497.636C373.91,497.625 373.898,497.614 373.887,497.603L369.891,493.787C369.299,493.222 368.364,493.238 367.792,493.823C367.22,494.407 367.225,495.343 367.803,495.922L371.706,499.832C371.717,499.844 371.729,499.855 371.74,499.867C372.303,500.469 372.271,501.415 371.67,501.978C371.068,502.541 370.122,502.509 369.559,501.908C369.548,501.896 369.537,501.884 369.527,501.872L365.883,497.718C365.344,497.103 364.411,497.036 363.79,497.568C363.169,498.1 363.091,499.032 363.615,499.659L367.157,503.9C367.168,503.912 367.178,503.925 367.188,503.937C367.695,504.587 367.581,505.526 366.931,506.033C366.282,506.541 365.343,506.426 364.835,505.777C364.825,505.764 364.816,505.752 364.806,505.739L361.544,501.279C361.062,500.619 360.138,500.47 359.472,500.944C358.807,501.419 358.646,502.341 359.113,503.012L362.267,507.549C362.276,507.563 362.285,507.576 362.294,507.589C362.742,508.281 362.545,509.206 361.853,509.655C361.162,510.103 360.237,509.905 359.788,509.214C359.78,509.201 359.771,509.187 359.763,509.173L356.908,504.442C356.485,503.742 355.578,503.512 354.873,503.926C354.168,504.34 353.927,505.244 354.333,505.954L357.073,510.752C357.081,510.766 357.089,510.78 357.097,510.795C357.482,511.523 357.204,512.427 356.475,512.813C355.747,513.198 354.843,512.92 354.457,512.191C354.45,512.177 354.442,512.163 354.435,512.148L352.01,507.184C351.651,506.449 350.768,506.14 350.029,506.49C349.29,506.84 348.97,507.719 349.311,508.462L351.617,513.484C351.624,513.498 351.63,513.513 351.636,513.528C351.956,514.288 351.599,515.164 350.839,515.483C350.079,515.803 349.203,515.446 348.884,514.686C348.877,514.671 348.871,514.656 348.866,514.641L346.888,509.482C346.596,508.718 345.743,508.332 344.976,508.615C344.209,508.899 343.813,509.747 344.087,510.517L345.94,515.722C345.946,515.737 345.951,515.753 345.956,515.768C346.207,516.553 345.774,517.394 344.989,517.645C344.204,517.896 343.363,517.463 343.112,516.678C343.107,516.663 343.102,516.648 343.098,516.632L341.584,511.318C341.36,510.532 340.545,510.072 339.756,510.286C338.967,510.501 338.497,511.31 338.702,512.101L340.088,517.45C340.092,517.466 340.096,517.482 340.1,517.497C340.28,518.301 339.774,519.101 338.97,519.282C338.166,519.462 337.367,518.957 337.186,518.153C337.182,518.137 337.179,518.121 337.176,518.105L336.138,512.678C335.985,511.875 335.214,511.345 334.409,511.489C333.604,511.633 333.064,512.397 333.199,513.204L334.106,518.654C334.109,518.67 334.111,518.686 334.113,518.702C334.222,519.519 333.648,520.271 332.831,520.38C332.014,520.489 331.262,519.914 331.153,519.097C331.151,519.081 331.149,519.066 331.148,519.05L330.593,513.552C330.511,512.738 329.79,512.142 328.976,512.214C328.161,512.287 327.556,513.001 327.619,513.816L328.041,519.325C328.042,519.341 328.043,519.357 328.044,519.373C328.081,520.197 327.442,520.895 326.618,520.931C325.795,520.967 325.097,520.329 325.061,519.505C325.06,519.489 325.06,519.473 325.059,519.457L324.993,513.932C324.983,513.114 324.318,512.457 323.5,512.457C322.682,512.457 322.017,513.114 322.007,513.932L321.941,519.457C321.94,519.473 321.94,519.489 321.939,519.505C321.903,520.329 321.205,520.967 320.382,520.931C319.558,520.895 318.919,520.197 318.956,519.373C318.957,519.357 318.958,519.341 318.959,519.325L319.381,513.816C319.444,513.001 318.839,512.287 318.024,512.214C317.21,512.142 316.489,512.738 316.407,513.552L315.852,519.05C315.851,519.066 315.849,519.081 315.847,519.097C315.738,519.914 314.986,520.489 314.169,520.38C313.352,520.271 312.778,519.519 312.887,518.702C312.889,518.686 312.891,518.67 312.894,518.654L313.801,513.204C313.936,512.397 313.396,511.633 312.591,511.489C311.786,511.345 311.015,511.875 310.862,512.678L309.824,518.105C309.821,518.121 309.818,518.137 309.814,518.153C309.633,518.957 308.834,519.462 308.03,519.282C307.226,519.101 306.72,518.301 306.9,517.497C306.904,517.482 306.908,517.466 306.912,517.45L308.298,512.101C308.503,511.31 308.033,510.501 307.244,510.286C306.455,510.072 305.64,510.532 305.416,511.318L303.902,516.632C303.898,516.648 303.893,516.663 303.888,516.678C303.637,517.463 302.796,517.896 302.011,517.645C301.226,517.394 300.793,516.553 301.044,515.768C301.049,515.753 301.054,515.737 301.06,515.722L302.913,510.517C303.187,509.747 302.791,508.899 302.024,508.615C301.257,508.332 300.404,508.718 300.112,509.482L298.134,514.641C298.129,514.656 298.123,514.671 298.116,514.686C297.797,515.446 296.921,515.803 296.161,515.483C295.401,515.164 295.044,514.288 295.364,513.528C295.37,513.513 295.376,513.498 295.383,513.484L297.689,508.462C298.03,507.719 297.71,506.84 296.971,506.49C296.232,506.14 295.349,506.449 294.99,507.184L292.565,512.148C292.558,512.163 292.55,512.177 292.543,512.191C292.157,512.92 291.253,513.198 290.525,512.813C289.796,512.427 289.518,511.523 289.903,510.795C289.911,510.78 289.919,510.766 289.927,510.752L292.667,505.954C293.073,505.244 292.832,504.34 292.127,503.926C291.422,503.512 290.515,503.742 290.092,504.442L287.237,509.173C287.229,509.187 287.22,509.201 287.212,509.214C286.763,509.905 285.838,510.103 285.147,509.655C284.455,509.206 284.258,508.281 284.706,507.589C284.715,507.576 284.724,507.563 284.733,507.549L287.887,503.012C288.354,502.341 288.193,501.419 287.528,500.944C286.862,500.47 285.938,500.619 285.456,501.279L282.194,505.739C282.184,505.752 282.175,505.764 282.165,505.777C281.657,506.426 280.718,506.541 280.069,506.033C279.419,505.526 279.305,504.587 279.812,503.937C279.822,503.925 279.832,503.912 279.843,503.9L283.385,499.659C283.909,499.032 283.831,498.1 283.21,497.568C282.589,497.036 281.656,497.103 281.117,497.718L277.473,501.872C277.463,501.884 277.452,501.896 277.441,501.908C276.878,502.509 275.932,502.541 275.33,501.978C274.729,501.415 274.697,500.469 275.26,499.867C275.271,499.855 275.283,499.844 275.294,499.832L279.197,495.922C279.775,495.343 279.78,494.407 279.208,493.823C278.636,493.238 277.701,493.222 277.109,493.787L273.113,497.603C273.102,497.614 273.09,497.625 273.078,497.636C272.464,498.185 271.519,498.133 270.969,497.519C270.42,496.905 270.472,495.96 271.086,495.411C271.098,495.4 271.11,495.389 271.122,495.379L275.356,491.829C275.983,491.303 276.07,490.372 275.552,489.739C275.035,489.106 274.104,489.007 273.465,489.518L269.147,492.965C269.135,492.975 269.122,492.985 269.109,492.995C268.449,493.488 267.513,493.353 267.019,492.692C266.526,492.032 266.662,491.096 267.322,490.602C267.335,490.593 267.348,490.583 267.361,490.574L271.892,487.412C272.563,486.944 272.732,486.024 272.272,485.348C271.812,484.671 270.894,484.491 270.213,484.943L265.607,487.996C265.594,488.004 265.58,488.013 265.566,488.022C264.865,488.454 263.944,488.237 263.511,487.535C263.079,486.834 263.296,485.913 263.998,485.48C264.011,485.472 264.025,485.464 264.039,485.456L268.832,482.706C269.541,482.299 269.791,481.398 269.393,480.684C268.994,479.97 268.096,479.709 267.377,480.098L262.52,482.732C262.506,482.74 262.491,482.747 262.477,482.755C261.74,483.124 260.842,482.825 260.473,482.089C260.104,481.352 260.402,480.454 261.139,480.085C261.153,480.078 261.168,480.071 261.182,480.064L266.199,477.749C266.942,477.406 267.271,476.53 266.937,475.784C266.603,475.037 265.731,474.698 264.981,475.023L259.91,477.217C259.895,477.223 259.88,477.229 259.865,477.235C259.099,477.538 258.231,477.161 257.928,476.395C257.625,475.628 258.002,474.76 258.768,474.458C258.783,474.452 258.798,474.446 258.813,474.441L264.015,472.578C264.785,472.302 265.19,471.459 264.924,470.686C264.657,469.913 263.819,469.497 263.042,469.755L257.797,471.492C257.782,471.497 257.767,471.502 257.751,471.506C256.961,471.74 256.13,471.288 255.896,470.498C255.662,469.708 256.114,468.877 256.904,468.643C256.92,468.638 256.935,468.634 256.951,468.63L262.297,467.234C263.088,467.028 263.566,466.223 263.369,465.43C263.172,464.636 262.373,464.149 261.577,464.336L256.199,465.603C256.183,465.607 256.168,465.61 256.152,465.613C255.344,465.776 254.556,465.253 254.393,464.445C254.23,463.637 254.753,462.849 255.561,462.686C255.577,462.683 255.593,462.68 255.609,462.677L261.057,461.76C261.864,461.624 262.411,460.865 262.285,460.057C262.159,459.249 261.406,458.693 260.597,458.809L255.128,459.596C255.112,459.598 255.096,459.6 255.08,459.602C254.261,459.693 253.522,459.102 253.431,458.283C253.34,457.464 253.931,456.725 254.75,456.634C254.766,456.632 254.782,456.631 254.798,456.629L260.307,456.197C261.122,456.133 261.734,455.425 261.68,454.609C261.625,453.793 260.925,453.173 260.109,453.217L254.591,453.518C254.575,453.518 254.559,453.519 254.543,453.519C253.719,453.538 253.035,452.884 253.017,452.06C252.999,451.236 253.653,450.552 254.477,450.534C254.493,450.533 254.509,450.533 254.525,450.533L260.05,450.589C260.868,450.598 261.54,449.947 261.558,449.129C261.576,448.312 260.934,447.632 260.116,447.604L254.594,447.416C254.578,447.415 254.562,447.414 254.546,447.413C253.724,447.358 253.101,446.647 253.155,445.824C253.21,445.002 253.922,444.379 254.744,444.433C254.76,444.434 254.776,444.436 254.792,444.437L260.291,444.981C261.104,445.062 261.832,444.473 261.922,443.66C262.012,442.848 261.432,442.114 260.62,442.014L255.136,441.338C255.12,441.336 255.105,441.334 255.089,441.331C254.274,441.204 253.717,440.44 253.844,439.625C253.971,438.811 254.735,438.253 255.549,438.38C255.565,438.383 255.581,438.386 255.597,438.389L261.026,439.417C261.829,439.569 262.606,439.046 262.767,438.245C262.929,437.443 262.416,436.661 261.617,436.489L256.214,435.332C256.198,435.328 256.182,435.325 256.167,435.321C255.367,435.122 254.879,434.312 255.077,433.512C255.276,432.712 256.087,432.224 256.886,432.422C256.902,432.426 256.917,432.43 256.933,432.435L262.25,433.938C263.037,434.161 263.856,433.709 264.088,432.925C264.32,432.141 263.878,431.316 263.097,431.075L257.818,429.444C257.802,429.439 257.787,429.434 257.772,429.429C256.993,429.161 256.578,428.31 256.847,427.531C257.115,426.752 257.966,426.337 258.745,426.606C258.76,426.611 258.775,426.617 258.79,426.622L263.953,428.59C264.717,428.881 265.574,428.504 265.874,427.743C266.174,426.983 265.807,426.122 265.05,425.813L259.936,423.722C259.921,423.716 259.906,423.709 259.891,423.703C259.139,423.366 258.801,422.482 259.137,421.73C259.474,420.978 260.358,420.64 261.11,420.976C261.125,420.983 261.139,420.99 261.154,420.997L266.123,423.413C266.858,423.771 267.744,423.47 268.111,422.739C268.477,422.008 268.187,421.118 267.461,420.743L262.551,418.209C262.537,418.201 262.523,418.194 262.509,418.186C261.789,417.784 261.53,416.874 261.932,416.154C262.333,415.435 263.244,415.176 263.963,415.578C263.977,415.586 263.991,415.594 264.005,415.602L268.741,418.448C269.442,418.869 270.351,418.648 270.781,417.953C271.21,417.257 271,416.345 270.31,415.907L265.643,412.948C265.63,412.94 265.616,412.931 265.603,412.922C264.922,412.458 264.745,411.529 265.208,410.847C265.672,410.166 266.601,409.989 267.283,410.453C267.296,410.462 267.309,410.471 267.322,410.48L271.788,413.734C272.449,414.215 273.374,414.076 273.864,413.421C274.353,412.765 274.225,411.839 273.575,411.341L269.189,407.982C269.176,407.972 269.163,407.962 269.151,407.952C268.513,407.43 268.419,406.488 268.941,405.851C269.463,405.213 270.404,405.119 271.042,405.641C271.055,405.651 271.067,405.661 271.079,405.672L275.24,409.307C275.856,409.845 276.79,409.788 277.335,409.179C277.88,408.57 277.834,407.635 277.232,407.082L273.159,403.348C273.147,403.337 273.135,403.326 273.124,403.315C272.535,402.739 272.524,401.793 273.101,401.203C273.677,400.614 274.623,400.604 275.212,401.18C275.224,401.191 275.235,401.203 275.246,401.214L279.069,405.203C279.635,405.794 280.571,405.819 281.168,405.26C281.765,404.702 281.801,403.767 281.25,403.163L277.523,399.083C277.512,399.072 277.502,399.06 277.491,399.047C276.955,398.421 277.029,397.478 277.655,396.942C278.281,396.406 279.224,396.479 279.76,397.105C279.77,397.118 279.781,397.13 279.791,397.142L283.247,401.454C283.758,402.092 284.687,402.2 285.332,401.696C285.976,401.192 286.095,400.264 285.599,399.614L282.247,395.221C282.238,395.208 282.228,395.196 282.219,395.182C281.74,394.512 281.897,393.578 282.567,393.1C283.238,392.621 284.172,392.778 284.65,393.449C284.659,393.462 284.669,393.475 284.677,393.488L287.739,398.088C288.192,398.769 289.108,398.959 289.794,398.514C290.48,398.069 290.681,397.155 290.244,396.464L287.294,391.792C287.286,391.778 287.277,391.764 287.269,391.751C286.852,391.04 287.09,390.124 287.801,389.707C288.511,389.29 289.427,389.528 289.844,390.238C289.853,390.252 289.86,390.266 289.868,390.28L292.511,395.133C292.902,395.851 293.798,396.121 294.521,395.738C295.243,395.356 295.524,394.463 295.15,393.736L292.625,388.822C292.617,388.807 292.61,388.793 292.603,388.778C292.25,388.034 292.569,387.142 293.313,386.79C294.058,386.437 294.949,386.755 295.302,387.5C295.309,387.514 295.316,387.529 295.322,387.543L297.526,392.611C297.852,393.36 298.72,393.708 299.474,393.391C300.228,393.074 300.586,392.21 300.278,391.453L298.197,386.334C298.191,386.319 298.185,386.304 298.179,386.289C297.893,385.516 298.289,384.657 299.062,384.371C299.835,384.085 300.695,384.481 300.98,385.254C300.986,385.269 300.991,385.284 300.996,385.299L302.744,390.541C303.002,391.317 303.836,391.741 304.615,391.491C305.394,391.242 305.827,390.413 305.588,389.631L303.967,384.349C303.962,384.334 303.957,384.318 303.953,384.303C303.737,383.507 304.207,382.686 305.002,382.47C305.798,382.254 306.619,382.724 306.835,383.519C306.839,383.535 306.843,383.55 306.847,383.566L308.124,388.942C308.313,389.737 309.107,390.233 309.904,390.053C310.702,389.874 311.207,389.086 311.037,388.286L309.889,382.881C309.886,382.866 309.883,382.85 309.88,382.834C309.735,382.023 310.276,381.246 311.087,381.101C311.898,380.956 312.675,381.497 312.82,382.308C312.823,382.324 312.825,382.34 312.828,382.356L313.625,387.824C313.743,388.633 314.489,389.196 315.3,389.088C316.11,388.98 316.683,388.24 316.584,387.428L315.919,381.943C315.917,381.927 315.915,381.911 315.914,381.895C315.841,381.074 316.448,380.349 317.269,380.276C318.09,380.203 318.816,380.81 318.889,381.631C318.89,381.647 318.891,381.663 318.892,381.679L319.203,387.196C319.249,388.012 319.943,388.64 320.759,388.604C321.576,388.568 322.212,387.881 322.186,387.064L322.008,381.541Z" style="fill:white;"/>
        </g>
        <g transform="matrix(1.34211,0,0,1.34211,-34.6643,-101.71)">
            <circle cx="148" cy="197" r="38" style="fill:rgb(0,140,255);"/>
        </g>
        <g transform="matrix(1.91837,0,0,1.91837,164.694,168.773)">
            <g transform="matrix(1,0,0,1,-16,-16)">
                <path d="M7.77,28.09C7.505,28.095 7.241,28.041 7,27.93C6.382,27.64 5.99,27.012 6,26.33L6,22L2.5,22C1.129,22 0,20.871 0,19.5L0,4.5C-0,3.129 1.129,2 2.5,2L29.5,2C30.871,2 32,3.129 32,4.5L32,19.5C32,20.871 30.871,22 29.5,22L15.38,22L8.91,27.66C8.593,27.934 8.189,28.087 7.77,28.09ZM2.5,4C2.226,4 2,4.226 2,4.5L2,19.5C2,19.774 2.226,20 2.5,20L7,20C7.266,19.998 7.521,20.103 7.71,20.29C7.897,20.479 8.002,20.734 8,21L8,25.77L14.33,20.24C14.516,20.081 14.755,19.995 15,20L29.5,20C29.774,20 30,19.774 30,19.5L30,4.5C30,4.226 29.774,4 29.5,4L2.5,4Z" style="fill:white;fill-rule:nonzero;"/>
            </g>
        </g>
    </g>
</svg>
