<?xml version="1.0" encoding="UTF-8" standalone="no"?><!DOCTYPE svg PUBLIC "-//W3C//DTD SVG 1.1//EN" "http://www.w3.org/Graphics/SVG/1.1/DTD/svg11.dtd"><svg width="100%" height="100%" viewBox="0 0 542 542" version="1.1" xmlns="http://www.w3.org/2000/svg" xmlns:xlink="http://www.w3.org/1999/xlink" xml:space="preserve" xmlns:serif="http://www.serif.com/" style="fill-rule:evenodd;clip-rule:evenodd;stroke-linecap:round;stroke-linejoin:round;stroke-miterlimit:1.5;"><g id="SA---Solution-Architecture-101" serif:id="SA - Solution Architecture 101"><g><circle cx="270.833" cy="270.833" r="270.833" style="fill:#14b053;"/><path d="M265.409,20.186c-0.002,-0.059 -0.003,-0.117 -0.003,-0.175c0,-2.996 2.432,-5.428 5.427,-5.428c2.996,0 5.428,2.432 5.428,5.428c-0,0.058 -0.001,0.116 -0.003,0.175l-0.648,20.073c-0.096,2.971 2.215,5.466 5.185,5.597c2.969,0.132 5.491,-2.15 5.658,-5.117l1.129,-20.052c0.004,-0.058 0.008,-0.116 0.013,-0.174c0.265,-2.984 2.902,-5.192 5.886,-4.927c2.983,0.265 5.191,2.902 4.926,5.886c-0.005,0.058 -0.011,0.116 -0.018,0.174l-2.419,19.937c-0.358,2.951 1.723,5.64 4.669,6.034c2.946,0.393 5.66,-1.656 6.089,-4.597l2.897,-19.874c0.008,-0.057 0.017,-0.115 0.028,-0.173c0.527,-2.948 3.349,-4.914 6.298,-4.387c2.949,0.528 4.914,3.35 4.387,6.299c-0.01,0.057 -0.022,0.114 -0.034,0.171l-4.172,19.646c-0.617,2.907 1.219,5.77 4.118,6.423c2.9,0.652 5.785,-1.15 6.472,-4.041l4.642,-19.54c0.013,-0.057 0.027,-0.113 0.043,-0.17c0.786,-2.89 3.77,-4.599 6.661,-3.813c2.89,0.786 4.599,3.771 3.813,6.661c-0.015,0.057 -0.031,0.113 -0.049,0.168l-5.891,19.201c-0.872,2.841 0.703,5.855 3.534,6.761c2.83,0.906 5.863,-0.634 6.803,-3.453l6.351,-19.053c0.018,-0.056 0.037,-0.111 0.058,-0.166c1.038,-2.809 4.162,-4.247 6.972,-3.209c2.809,1.038 4.248,4.162 3.209,6.972c-0.02,0.055 -0.041,0.109 -0.063,0.163l-7.566,18.605c-1.119,2.753 0.184,5.894 2.923,7.047c2.74,1.152 5.897,-0.113 7.082,-2.838l8.01,-18.418c0.023,-0.053 0.047,-0.107 0.072,-0.159c1.283,-2.707 4.522,-3.864 7.228,-2.581c2.707,1.282 3.864,4.521 2.581,7.228c-0.025,0.053 -0.051,0.105 -0.077,0.157l-9.181,17.863c-1.358,2.644 -0.338,5.888 2.289,7.278c2.627,1.39 5.883,0.409 7.305,-2.201l9.606,-17.638c0.028,-0.051 0.057,-0.102 0.086,-0.152c1.517,-2.583 4.845,-3.449 7.428,-1.932c2.583,1.517 3.449,4.846 1.932,7.429c-0.029,0.05 -0.06,0.1 -0.091,0.149l-10.723,16.982c-1.587,2.513 -0.857,5.834 1.636,7.451c2.494,1.617 5.825,0.928 7.471,-1.547l11.128,-16.719c0.032,-0.049 0.065,-0.097 0.099,-0.144c1.739,-2.439 5.131,-3.007 7.57,-1.268c2.439,1.739 3.007,5.131 1.268,7.57c-0.034,0.047 -0.069,0.094 -0.104,0.141l-12.182,15.967c-1.803,2.363 -1.37,5.736 0.971,7.567c2.341,1.831 5.719,1.439 7.578,-0.88l12.562,-15.671c0.036,-0.045 0.073,-0.09 0.111,-0.135c1.948,-2.275 5.377,-2.541 7.653,-0.593c2.275,1.947 2.541,5.376 0.594,7.652c-0.038,0.044 -0.077,0.088 -0.116,0.131l-13.546,14.828c-2.004,2.195 -1.871,5.593 0.299,7.624c2.17,2.03 5.57,1.938 7.626,-0.208l13.898,-14.499c0.04,-0.042 0.081,-0.083 0.123,-0.124c2.141,-2.095 5.58,-2.057 7.675,0.085c2.094,2.141 2.056,5.58 -0.085,7.675c-0.042,0.04 -0.084,0.081 -0.127,0.12l-14.803,13.573c-2.191,2.009 -2.359,5.405 -0.376,7.62c1.982,2.215 5.376,2.423 7.614,0.467l15.125,-13.214c0.044,-0.038 0.088,-0.076 0.133,-0.113c2.319,-1.897 5.741,-1.555 7.638,0.763c1.897,2.318 1.555,5.74 -0.763,7.638c-0.045,0.036 -0.091,0.073 -0.137,0.108l-15.945,12.212c-2.36,1.807 -2.827,5.176 -1.048,7.557c1.779,2.381 5.142,2.888 7.544,1.138l16.233,-11.825c0.047,-0.035 0.095,-0.068 0.143,-0.101c2.477,-1.685 5.855,-1.042 7.54,1.435c1.685,2.476 1.042,5.855 -1.435,7.54c-0.048,0.033 -0.097,0.065 -0.146,0.096l-16.962,10.755c-2.51,1.591 -3.273,4.905 -1.712,7.434c1.562,2.529 4.867,3.332 7.414,1.801l17.215,-10.345c0.05,-0.03 0.1,-0.059 0.151,-0.087c2.616,-1.46 5.925,-0.521 7.384,2.095c1.459,2.616 0.52,5.925 -2.096,7.384c-0.051,0.028 -0.102,0.056 -0.154,0.083l-17.846,9.213c-2.641,1.364 -3.694,4.598 -2.362,7.255c1.332,2.657 4.553,3.748 7.226,2.449l18.061,-8.783c0.053,-0.026 0.105,-0.05 0.159,-0.074c2.734,-1.223 5.947,0.005 7.169,2.74c1.223,2.735 -0.005,5.947 -2.74,7.17c-0.053,0.023 -0.107,0.046 -0.161,0.068l-18.59,7.601c-2.751,1.124 -4.086,4.253 -2.994,7.017c1.092,2.764 4.204,4.136 6.981,3.078l18.767,-7.152c0.054,-0.021 0.109,-0.041 0.165,-0.06c2.832,-0.976 5.923,0.531 6.899,3.363c0.976,2.832 -0.531,5.923 -3.363,6.899c-0.055,0.019 -0.111,0.038 -0.166,0.055l-19.19,5.927c-2.839,0.877 -4.445,3.875 -3.602,6.725c0.843,2.85 3.821,4.492 6.681,3.683l19.326,-5.465c0.056,-0.016 0.113,-0.031 0.169,-0.045c2.907,-0.722 5.854,1.052 6.575,3.959c0.722,2.908 -1.052,5.854 -3.959,6.576c-0.057,0.014 -0.114,0.027 -0.171,0.039l-19.638,4.208c-2.906,0.623 -4.77,3.467 -4.182,6.381c0.587,2.913 3.409,4.812 6.329,4.259l19.734,-3.736c0.057,-0.011 0.114,-0.021 0.172,-0.03c2.96,-0.462 5.737,1.565 6.2,4.525c0.462,2.96 -1.566,5.738 -4.526,6.2c-0.057,0.009 -0.115,0.017 -0.173,0.024l-19.933,2.456c-2.95,0.364 -5.059,3.032 -4.73,5.986c0.328,2.954 2.971,5.094 5.928,4.802l19.986,-1.978c0.058,-0.006 0.117,-0.01 0.175,-0.014c2.989,-0.199 5.576,2.066 5.775,5.055c0.199,2.989 -2.066,5.577 -5.055,5.775c-0.059,0.004 -0.117,0.007 -0.175,0.009l-20.072,0.685c-2.971,0.102 -5.307,2.573 -5.241,5.544c0.066,2.972 2.509,5.338 5.481,5.307l20.083,-0.203c0.058,-0.001 0.116,-0 0.175,0.001c2.994,0.066 5.372,2.551 5.306,5.546c-0.067,2.995 -2.552,5.372 -5.546,5.306c-0.059,-0.001 -0.117,-0.003 -0.175,-0.007l-20.054,-1.091c-2.968,-0.162 -5.514,2.094 -5.711,5.059c-0.197,2.966 2.028,5.538 4.991,5.771l20.022,1.572c0.058,0.005 0.116,0.01 0.174,0.016c2.977,0.331 5.126,3.017 4.795,5.994c-0.331,2.977 -3.016,5.125 -5.993,4.795c-0.058,-0.007 -0.116,-0.014 -0.174,-0.022l-19.879,-2.86c-2.942,-0.423 -5.677,1.598 -6.135,4.535c-0.459,2.936 1.53,5.695 4.461,6.189l19.805,3.336c0.057,0.009 0.115,0.02 0.172,0.031c2.936,0.593 4.839,3.458 4.246,6.394c-0.592,2.936 -3.457,4.839 -6.393,4.247c-0.057,-0.012 -0.114,-0.024 -0.171,-0.038l-19.549,-4.605c-2.893,-0.682 -5.796,1.09 -6.512,3.975c-0.716,2.884 1.021,5.808 3.897,6.559l19.432,5.073c0.057,0.015 0.113,0.03 0.169,0.047c2.872,0.849 4.514,3.871 3.665,6.744c-0.85,2.872 -3.872,4.514 -6.744,3.665c-0.056,-0.017 -0.112,-0.034 -0.167,-0.053l-19.065,-6.315c-2.822,-0.934 -5.87,0.574 -6.838,3.384c-0.968,2.81 0.503,5.876 3.301,6.878l18.909,6.77c0.055,0.02 0.109,0.04 0.163,0.062c2.786,1.1 4.155,4.255 3.055,7.041c-1.1,2.786 -4.255,4.155 -7.041,3.055c-0.055,-0.022 -0.109,-0.044 -0.162,-0.067l-18.433,-7.975c-2.727,-1.181 -5.897,0.052 -7.11,2.766c-1.213,2.713 -0.017,5.897 2.681,7.143l18.236,8.415c0.053,0.024 0.105,0.049 0.158,0.076c2.678,1.342 3.762,4.606 2.42,7.283c-1.342,2.678 -4.606,3.763 -7.284,2.421c-0.052,-0.026 -0.104,-0.053 -0.155,-0.081l-17.656,-9.574c-2.612,-1.416 -5.878,-0.468 -7.326,2.128c-1.448,2.595 -0.539,5.872 2.039,7.351l17.42,9.994c0.051,0.029 0.101,0.059 0.151,0.09c2.549,1.573 3.34,4.92 1.767,7.469c-1.574,2.549 -4.921,3.341 -7.469,1.767c-0.05,-0.031 -0.099,-0.062 -0.148,-0.094l-16.74,-11.097c-2.477,-1.642 -5.814,-0.986 -7.486,1.472c-1.672,2.457 -1.056,5.802 1.381,7.503l16.469,11.494c0.048,0.034 0.096,0.068 0.142,0.103c2.4,1.792 2.893,5.196 1.1,7.596c-1.792,2.4 -5.196,2.893 -7.596,1.1c-0.047,-0.035 -0.093,-0.071 -0.138,-0.107l-15.694,-12.532c-2.323,-1.855 -5.705,-1.497 -7.587,0.803c-1.882,2.3 -1.565,5.687 0.713,7.596l15.389,12.905c0.044,0.038 0.088,0.076 0.132,0.115c2.232,1.998 2.422,5.432 0.424,7.664c-1.998,2.231 -5.432,2.422 -7.664,0.424c-0.043,-0.039 -0.086,-0.079 -0.128,-0.119l-14.525,-13.87c-2.149,-2.053 -5.55,-1.995 -7.628,0.13c-2.078,2.125 -2.061,5.526 0.038,7.629l14.189,14.215c0.041,0.041 0.081,0.083 0.121,0.126c2.047,2.187 1.933,5.624 -0.254,7.671c-2.188,2.046 -5.625,1.932 -7.672,-0.255c-0.039,-0.043 -0.079,-0.086 -0.117,-0.13l-13.242,-15.099c-1.96,-2.235 -5.352,-2.478 -7.61,-0.545c-2.258,1.933 -2.541,5.322 -0.636,7.603l12.876,15.413c0.038,0.045 0.075,0.09 0.11,0.136c1.846,2.359 1.428,5.773 -0.931,7.619c-2.36,1.845 -5.773,1.427 -7.619,-0.932c-0.036,-0.046 -0.071,-0.093 -0.105,-0.14l-11.856,-16.211c-1.755,-2.399 -5.112,-2.94 -7.532,-1.215c-2.42,1.726 -3.002,5.077 -1.305,7.517l11.463,16.491c0.034,0.048 0.066,0.096 0.098,0.145c1.629,2.513 0.912,5.877 -1.601,7.507c-2.514,1.629 -5.877,0.912 -7.507,-1.602c-0.032,-0.049 -0.063,-0.098 -0.093,-0.148l-10.377,-17.196c-1.535,-2.544 -4.832,-3.38 -7.395,-1.875c-2.562,1.505 -3.438,4.791 -1.964,7.372l9.961,17.439c0.029,0.05 0.057,0.102 0.085,0.153c1.401,2.648 0.389,5.935 -2.259,7.336c-2.647,1.401 -5.934,0.389 -7.335,-2.259c-0.028,-0.051 -0.054,-0.103 -0.08,-0.156l-8.816,-18.045c-1.305,-2.67 -4.515,-3.795 -7.201,-2.522c-2.685,1.273 -3.848,4.469 -2.608,7.17l8.381,18.251c0.025,0.053 0.048,0.106 0.071,0.16c1.161,2.761 -0.137,5.946 -2.898,7.107c-2.761,1.162 -5.946,-0.136 -7.107,-2.898c-0.023,-0.053 -0.045,-0.107 -0.066,-0.162l-7.187,-18.754c-1.063,-2.775 -4.161,-4.179 -6.949,-3.148c-2.788,1.03 -4.229,4.111 -3.232,6.911l6.736,18.92c0.019,0.055 0.038,0.111 0.056,0.166c0.913,2.853 -0.662,5.911 -3.515,6.824c-2.853,0.913 -5.911,-0.662 -6.824,-3.515c-0.017,-0.056 -0.034,-0.112 -0.05,-0.168l-5.502,-19.315c-0.814,-2.859 -3.776,-4.531 -6.644,-3.751c-2.867,0.78 -4.575,3.721 -3.829,6.598l5.036,19.442c0.015,0.057 0.029,0.114 0.042,0.171c0.657,2.922 -1.182,5.828 -4.105,6.486c-2.922,0.657 -5.828,-1.182 -6.486,-4.104c-0.012,-0.057 -0.024,-0.115 -0.035,-0.172l-3.773,-19.726c-0.558,-2.919 -3.361,-4.846 -6.286,-4.323c-2.926,0.523 -4.887,3.302 -4.398,6.234l3.298,19.811c0.01,0.058 0.019,0.115 0.026,0.173c0.397,2.969 -1.692,5.702 -4.661,6.098c-2.969,0.396 -5.701,-1.692 -6.098,-4.661c-0.008,-0.058 -0.014,-0.116 -0.02,-0.174l-2.015,-19.983c-0.298,-2.957 -2.919,-5.124 -5.88,-4.861c-2.96,0.262 -5.159,2.857 -4.931,5.821l1.535,20.025c0.004,0.058 0.007,0.116 0.01,0.174c0.133,2.993 -2.189,5.53 -5.182,5.663c-2.992,0.132 -5.529,-2.19 -5.662,-5.182c-0.003,-0.059 -0.004,-0.117 -0.005,-0.175l-0.241,-20.083c-0.035,-2.972 -2.455,-5.362 -5.427,-5.362c-2.972,-0 -5.391,2.39 -5.427,5.362l-0.24,20.083c-0.001,0.058 -0.003,0.116 -0.005,0.175c-0.133,2.992 -2.67,5.314 -5.662,5.182c-2.993,-0.133 -5.315,-2.67 -5.182,-5.663c0.002,-0.058 0.006,-0.116 0.01,-0.174l1.535,-20.025c0.227,-2.964 -1.971,-5.559 -4.932,-5.821c-2.96,-0.263 -5.581,1.904 -5.879,4.861l-2.015,19.983c-0.006,0.058 -0.013,0.116 -0.02,0.174c-0.397,2.969 -3.129,5.057 -6.098,4.661c-2.969,-0.396 -5.058,-3.129 -4.662,-6.098c0.008,-0.058 0.017,-0.115 0.026,-0.173l3.299,-19.811c0.488,-2.932 -1.472,-5.711 -4.398,-6.234c-2.925,-0.523 -5.728,1.404 -6.286,4.323l-3.773,19.726c-0.011,0.057 -0.023,0.115 -0.036,0.172c-0.657,2.922 -3.563,4.761 -6.486,4.104c-2.922,-0.658 -4.761,-3.564 -4.104,-6.486c0.013,-0.057 0.027,-0.114 0.041,-0.171l5.037,-19.442c0.745,-2.877 -0.962,-5.818 -3.83,-6.598c-2.868,-0.78 -5.829,0.892 -6.644,3.751l-5.501,19.315c-0.016,0.056 -0.033,0.112 -0.051,0.168c-0.913,2.853 -3.97,4.428 -6.823,3.515c-2.853,-0.913 -4.428,-3.971 -3.515,-6.824c0.018,-0.055 0.037,-0.111 0.056,-0.166l6.735,-18.92c0.997,-2.8 -0.443,-5.881 -3.231,-6.911c-2.788,-1.031 -5.886,0.373 -6.949,3.148l-7.188,18.754c-0.021,0.055 -0.042,0.109 -0.065,0.162c-1.162,2.762 -4.346,4.06 -7.107,2.898c-2.761,-1.161 -4.06,-4.346 -2.898,-7.107c0.022,-0.054 0.046,-0.107 0.07,-0.16l8.381,-18.251c1.241,-2.701 0.078,-5.897 -2.608,-7.17c-2.686,-1.273 -5.895,-0.148 -7.2,2.522l-8.817,18.045c-0.025,0.053 -0.052,0.105 -0.079,0.156c-1.401,2.648 -4.688,3.66 -7.336,2.259c-2.647,-1.401 -3.659,-4.688 -2.258,-7.336c0.027,-0.051 0.055,-0.103 0.084,-0.153l9.962,-17.439c1.474,-2.581 0.598,-5.867 -1.965,-7.372c-2.563,-1.505 -5.859,-0.669 -7.395,1.875l-10.377,17.196c-0.03,0.05 -0.061,0.099 -0.092,0.148c-1.63,2.514 -4.994,3.231 -7.507,1.602c-2.513,-1.63 -3.231,-4.994 -1.601,-7.507c0.032,-0.049 0.064,-0.097 0.097,-0.145l11.464,-16.491c1.697,-2.44 1.115,-5.791 -1.305,-7.517c-2.42,-1.725 -5.777,-1.184 -7.532,1.215l-11.856,16.211c-0.034,0.047 -0.07,0.094 -0.106,0.14c-1.845,2.359 -5.259,2.777 -7.618,0.932c-2.36,-1.846 -2.777,-5.26 -0.932,-7.619c0.036,-0.046 0.073,-0.091 0.11,-0.136l12.877,-15.413c1.905,-2.281 1.622,-5.67 -0.636,-7.603c-2.258,-1.933 -5.65,-1.69 -7.61,0.545l-13.242,15.099c-0.039,0.044 -0.078,0.087 -0.118,0.13c-2.046,2.187 -5.484,2.301 -7.671,0.255c-2.187,-2.047 -2.301,-5.484 -0.255,-7.671c0.04,-0.043 0.081,-0.085 0.122,-0.126l14.188,-14.215c2.1,-2.103 2.117,-5.504 0.039,-7.629c-2.078,-2.125 -5.479,-2.183 -7.628,-0.13l-14.525,13.87c-0.042,0.04 -0.085,0.08 -0.129,0.119c-2.232,1.998 -5.666,1.807 -7.663,-0.424c-1.998,-2.232 -1.808,-5.666 0.424,-7.664c0.043,-0.039 0.087,-0.077 0.132,-0.115l15.389,-12.905c2.277,-1.909 2.595,-5.296 0.713,-7.596c-1.882,-2.3 -5.265,-2.658 -7.587,-0.803l-15.694,12.532c-0.046,0.036 -0.092,0.072 -0.139,0.107c-2.399,1.793 -5.803,1.3 -7.596,-1.1c-1.792,-2.4 -1.299,-5.804 1.1,-7.596c0.047,-0.035 0.094,-0.069 0.142,-0.103l16.469,-11.494c2.438,-1.701 3.053,-5.046 1.382,-7.503c-1.672,-2.458 -5.009,-3.114 -7.486,-1.472l-16.74,11.097c-0.049,0.032 -0.098,0.063 -0.148,0.094c-2.549,1.574 -5.896,0.782 -7.469,-1.767c-1.574,-2.549 -0.782,-5.896 1.767,-7.469c0.049,-0.031 0.1,-0.061 0.15,-0.09l17.421,-9.994c2.578,-1.479 3.487,-4.756 2.039,-7.351c-1.448,-2.596 -4.714,-3.544 -7.327,-2.128l-17.655,9.574c-0.051,0.028 -0.103,0.055 -0.155,0.081c-2.678,1.342 -5.942,0.257 -7.284,-2.421c-1.342,-2.677 -0.258,-5.941 2.42,-7.283c0.052,-0.027 0.105,-0.052 0.158,-0.076l18.236,-8.415c2.698,-1.246 3.893,-4.43 2.68,-7.143c-1.212,-2.714 -4.382,-3.947 -7.11,-2.766l-18.432,7.975c-0.054,0.023 -0.108,0.045 -0.162,0.067c-2.786,1.1 -5.941,-0.269 -7.041,-3.055c-1.101,-2.786 0.268,-5.941 3.054,-7.041c0.055,-0.022 0.109,-0.042 0.164,-0.062l18.908,-6.77c2.798,-1.002 4.27,-4.068 3.302,-6.878c-0.969,-2.81 -4.017,-4.318 -6.838,-3.384l-19.065,6.315c-0.055,0.019 -0.111,0.036 -0.167,0.053c-2.873,0.849 -5.894,-0.793 -6.744,-3.665c-0.85,-2.873 0.792,-5.895 3.665,-6.744c0.056,-0.017 0.112,-0.032 0.168,-0.047l19.433,-5.073c2.876,-0.751 4.613,-3.675 3.897,-6.559c-0.717,-2.885 -3.62,-4.657 -6.512,-3.975l-19.549,4.605c-0.057,0.014 -0.114,0.026 -0.171,0.038c-2.936,0.592 -5.801,-1.311 -6.394,-4.247c-0.592,-2.936 1.311,-5.801 4.247,-6.394c0.057,-0.011 0.114,-0.022 0.172,-0.031l19.805,-3.336c2.931,-0.494 4.919,-3.253 4.461,-6.189c-0.459,-2.937 -3.194,-4.958 -6.135,-4.535l-19.879,2.86c-0.058,0.008 -0.116,0.015 -0.174,0.022c-2.977,0.33 -5.663,-1.818 -5.993,-4.795c-0.331,-2.977 1.817,-5.663 4.795,-5.994c0.058,-0.006 0.116,-0.011 0.174,-0.016l20.022,-1.572c2.963,-0.233 5.188,-2.805 4.991,-5.771c-0.198,-2.965 -2.743,-5.221 -5.711,-5.059l-20.054,1.091c-0.058,0.004 -0.117,0.006 -0.175,0.007c-2.995,0.066 -5.48,-2.311 -5.546,-5.306c-0.066,-2.995 2.311,-5.48 5.306,-5.546c0.058,-0.001 0.117,-0.002 0.175,-0.001l20.083,0.203c2.972,0.031 5.415,-2.335 5.481,-5.307c0.066,-2.971 -2.271,-5.442 -5.241,-5.544l-20.072,-0.685c-0.059,-0.002 -0.117,-0.005 -0.175,-0.009c-2.989,-0.198 -5.254,-2.786 -5.055,-5.775c0.198,-2.989 2.786,-5.254 5.775,-5.055c0.058,0.004 0.116,0.008 0.174,0.014l19.987,1.978c2.957,0.292 5.6,-1.848 5.928,-4.802c0.328,-2.954 -1.781,-5.622 -4.73,-5.986l-19.933,-2.456c-0.058,-0.007 -0.116,-0.015 -0.174,-0.024c-2.959,-0.462 -4.987,-3.24 -4.525,-6.2c0.462,-2.96 3.24,-4.987 6.2,-4.525c0.057,0.009 0.115,0.019 0.172,0.03l19.733,3.736c2.921,0.553 5.742,-1.346 6.33,-4.259c0.588,-2.914 -1.277,-5.758 -4.183,-6.381l-19.638,-4.208c-0.057,-0.012 -0.114,-0.025 -0.17,-0.039c-2.907,-0.722 -4.682,-3.668 -3.96,-6.576c0.722,-2.907 3.668,-4.681 6.575,-3.959c0.057,0.014 0.113,0.029 0.17,0.045l19.325,5.465c2.86,0.809 5.839,-0.833 6.682,-3.683c0.843,-2.85 -0.763,-5.848 -3.603,-6.725l-19.189,-5.927c-0.056,-0.017 -0.111,-0.036 -0.166,-0.055c-2.832,-0.976 -4.339,-4.067 -3.363,-6.899c0.976,-2.832 4.067,-4.339 6.899,-3.363c0.055,0.019 0.11,0.039 0.165,0.06l18.767,7.152c2.777,1.058 5.889,-0.314 6.981,-3.078c1.091,-2.764 -0.244,-5.893 -2.995,-7.017l-18.59,-7.601c-0.054,-0.022 -0.107,-0.045 -0.161,-0.068c-2.734,-1.223 -3.962,-4.435 -2.74,-7.17c1.223,-2.735 4.435,-3.963 7.17,-2.74c0.053,0.024 0.106,0.048 0.159,0.074l18.061,8.783c2.673,1.299 5.894,0.208 7.226,-2.449c1.331,-2.657 0.278,-5.891 -2.363,-7.255l-17.845,-9.213c-0.052,-0.027 -0.104,-0.055 -0.155,-0.083c-2.615,-1.459 -3.555,-4.768 -2.095,-7.384c1.459,-2.616 4.768,-3.555 7.384,-2.095c0.051,0.028 0.101,0.057 0.151,0.087l17.215,10.345c2.547,1.531 5.852,0.728 7.413,-1.801c1.562,-2.529 0.798,-5.843 -1.712,-7.434l-16.961,-10.755c-0.049,-0.031 -0.098,-0.063 -0.146,-0.096c-2.477,-1.685 -3.12,-5.064 -1.435,-7.54c1.684,-2.477 5.063,-3.12 7.54,-1.435c0.048,0.033 0.096,0.066 0.143,0.101l16.233,11.825c2.402,1.75 5.765,1.243 7.544,-1.138c1.778,-2.381 1.311,-5.75 -1.048,-7.557l-15.945,-12.212c-0.046,-0.035 -0.092,-0.072 -0.137,-0.108c-2.318,-1.898 -2.66,-5.32 -0.763,-7.638c1.897,-2.318 5.319,-2.66 7.637,-0.763c0.045,0.037 0.09,0.075 0.134,0.113l15.124,13.214c2.238,1.956 5.633,1.748 7.615,-0.467c1.982,-2.215 1.815,-5.611 -0.376,-7.62l-14.803,-13.573c-0.043,-0.039 -0.085,-0.08 -0.127,-0.12c-2.142,-2.095 -2.18,-5.534 -0.085,-7.675c2.094,-2.142 5.534,-2.18 7.675,-0.085c0.042,0.041 0.083,0.082 0.123,0.124l13.897,14.499c2.057,2.146 5.457,2.238 7.627,0.208c2.17,-2.031 2.303,-5.429 0.299,-7.624l-13.546,-14.828c-0.039,-0.043 -0.078,-0.087 -0.116,-0.131c-1.948,-2.276 -1.682,-5.705 0.594,-7.652c2.275,-1.948 5.704,-1.682 7.652,0.593c0.038,0.045 0.075,0.09 0.112,0.135l12.561,15.671c1.859,2.319 5.237,2.711 7.579,0.88c2.341,-1.831 2.774,-5.204 0.971,-7.567l-12.182,-15.967c-0.035,-0.047 -0.07,-0.094 -0.104,-0.141c-1.739,-2.439 -1.171,-5.831 1.268,-7.57c2.439,-1.739 5.831,-1.171 7.57,1.268c0.034,0.047 0.067,0.095 0.099,0.144l11.127,16.719c1.647,2.475 4.977,3.164 7.471,1.547c2.494,-1.617 3.223,-4.938 1.637,-7.451l-10.723,-16.982c-0.032,-0.049 -0.062,-0.099 -0.092,-0.149c-1.516,-2.583 -0.651,-5.912 1.932,-7.429c2.583,-1.517 5.912,-0.651 7.429,1.932c0.029,0.05 0.058,0.101 0.086,0.152l9.606,17.638c1.421,2.61 4.678,3.591 7.305,2.201c2.627,-1.39 3.647,-4.634 2.288,-7.278l-9.18,-17.863c-0.027,-0.052 -0.053,-0.104 -0.078,-0.157c-1.282,-2.707 -0.126,-5.946 2.581,-7.228c2.707,-1.283 5.946,-0.126 7.229,2.581c0.025,0.052 0.049,0.106 0.072,0.159l8.01,18.418c1.185,2.725 4.342,3.99 7.081,2.838c2.74,-1.153 4.043,-4.294 2.923,-7.047l-7.565,-18.605c-0.022,-0.054 -0.043,-0.108 -0.064,-0.163c-1.038,-2.81 0.4,-5.934 3.21,-6.972c2.81,-1.038 5.934,0.4 6.972,3.209c0.02,0.055 0.04,0.11 0.058,0.166l6.351,19.053c0.939,2.819 3.972,4.359 6.803,3.453c2.83,-0.906 4.406,-3.92 3.534,-6.761l-5.892,-19.201c-0.017,-0.055 -0.033,-0.111 -0.048,-0.168c-0.786,-2.89 0.922,-5.875 3.813,-6.661c2.89,-0.786 5.875,0.923 6.661,3.813c0.015,0.057 0.03,0.113 0.043,0.17l4.642,19.54c0.687,2.891 3.572,4.693 6.471,4.041c2.9,-0.653 4.736,-3.516 4.118,-6.423l-4.172,-19.646c-0.012,-0.057 -0.023,-0.114 -0.033,-0.171c-0.528,-2.949 1.438,-5.771 4.387,-6.299c2.948,-0.527 5.771,1.439 6.298,4.387c0.01,0.058 0.02,0.116 0.028,0.173l2.897,19.874c0.428,2.941 3.143,4.99 6.089,4.597c2.945,-0.394 5.027,-3.083 4.669,-6.034l-2.419,-19.937c-0.007,-0.058 -0.013,-0.116 -0.018,-0.174c-0.265,-2.984 1.942,-5.621 4.926,-5.886c2.984,-0.265 5.621,1.943 5.886,4.927c0.005,0.058 0.009,0.116 0.012,0.174l1.129,20.052c0.167,2.967 2.69,5.249 5.659,5.117c2.969,-0.131 5.28,-2.626 5.185,-5.597l-0.648,-20.073Z" style="fill:#fff;"/><circle cx="270.833" cy="270.833" r="212.5" style="fill:#14b053;"/></g><path d="M270.041,313.127l-145.041,-78.534l-0,79.822l145.041,78.533l-0,-79.821Z" style="fill:none;stroke:#fff;stroke-width:14.24px;"/><path d="M416.667,234.593l-146.626,79.392l-0,78.963l146.626,-79.392l-0,-78.963Z" style="fill:none;stroke:#fff;stroke-width:14.24px;"/><path d="M270.833,155.63l-145.833,78.963l145.833,78.963l145.834,-78.963l-145.834,-78.963Z" style="fill:none;stroke:#fff;stroke-width:14.24px;"/><path d="M176.733,221.457c12.577,-6.81 32.613,-7.018 44.716,-0.464c12.104,6.553 11.72,17.402 -0.856,24.212c-12.577,6.809 -32.613,7.017 -44.716,0.464c-12.104,-6.554 -11.72,-17.403 0.856,-24.212Z" style="fill:none;stroke:#fff;stroke-opacity:0;stroke-width:14.24px;"/><path d="M249.284,180.986c13.205,-7.15 34.243,-7.368 46.952,-0.487c12.708,6.881 12.305,18.272 -0.9,25.422c-13.205,7.15 -34.243,7.369 -46.952,0.488c-12.708,-6.881 -12.305,-18.273 0.9,-25.423Z" style="fill:none;stroke:#fff;stroke-opacity:0;stroke-width:14.24px;"/><path d="M320.724,221.267c13.205,-7.15 34.243,-7.368 46.952,-0.487c12.708,6.881 12.305,18.272 -0.9,25.422c-13.205,7.15 -34.243,7.369 -46.952,0.488c-12.708,-6.882 -12.305,-18.273 0.9,-25.423Z" style="fill:none;stroke:#fff;stroke-opacity:0;stroke-width:14.24px;"/><path d="M247.015,261.178c13.205,-7.15 34.243,-7.369 46.951,-0.487c12.709,6.881 12.306,18.272 -0.899,25.422c-13.205,7.15 -34.244,7.368 -46.952,0.487c-12.709,-6.881 -12.305,-18.272 0.9,-25.422Z" style="fill:none;stroke:#fff;stroke-opacity:0;stroke-width:14.24px;"/><g><path d="M165.488,214.708c0.317,-4.489 3.712,-8.982 10.149,-12.468c13.205,-7.15 34.243,-7.368 46.952,-0.487c6.513,3.526 9.582,8.238 9.249,12.955l0.025,-0l-0,19.885l-0.195,0c-0.81,4.06 -4.145,8.046 -9.979,11.205c-13.205,7.15 -34.243,7.369 -46.952,0.487c-5.931,-3.211 -9.006,-7.405 -9.257,-11.692l-0.017,0l0,-19.885l0.025,-0Z" style="fill:#14b053;stroke:#fff;stroke-width:14.24px;"/><path d="M175.637,202.24c13.205,-7.15 34.243,-7.368 46.952,-0.487c12.708,6.881 12.305,18.272 -0.9,25.422c-13.205,7.15 -34.243,7.369 -46.952,0.488c-12.708,-6.881 -12.305,-18.273 0.9,-25.423Z" style="fill:#14b053;stroke:#fff;stroke-width:14.24px;"/></g><g><path d="M310.575,215.112c0.317,-4.489 3.712,-8.982 10.149,-12.468c13.205,-7.15 34.243,-7.368 46.952,-0.487c6.513,3.527 9.582,8.238 9.249,12.955l0.025,-0l-0,19.885l-0.195,0c-0.81,4.06 -4.145,8.047 -9.979,11.205c-13.205,7.15 -34.243,7.369 -46.952,0.488c-5.931,-3.212 -9.006,-7.406 -9.257,-11.693l-0.017,0l0,-19.885l0.025,-0Z" style="fill:#14b053;stroke:#fff;stroke-width:14.24px;"/><path d="M320.724,202.644c13.205,-7.15 34.243,-7.368 46.952,-0.487c12.708,6.881 12.305,18.273 -0.9,25.423c-13.205,7.15 -34.243,7.368 -46.952,0.487c-12.708,-6.881 -12.305,-18.273 0.9,-25.423Z" style="fill:#14b053;stroke:#fff;stroke-width:14.24px;"/><path d="M320.724,202.644c13.205,-7.15 34.243,-7.368 46.952,-0.487c12.708,6.881 12.305,18.273 -0.9,25.423c-13.205,7.15 -34.243,7.368 -46.952,0.487c-12.708,-6.881 -12.305,-18.273 0.9,-25.423Z" style="fill:#14b053;stroke:#fff;stroke-width:14.24px;"/></g><g><path d="M236.866,255.023c0.316,-4.489 3.711,-8.982 10.149,-12.468c13.205,-7.15 34.243,-7.368 46.951,-0.487c6.513,3.526 9.583,8.238 9.25,12.955l0.024,-0l0,19.885l-0.195,-0c-0.809,4.06 -4.144,8.046 -9.978,11.205c-13.205,7.15 -34.244,7.368 -46.952,0.487c-5.931,-3.211 -9.006,-7.405 -9.257,-11.692l-0.017,-0l0,-19.885l0.025,-0Z" style="fill:#14b053;stroke:#fff;stroke-width:14.24px;"/><path d="M247.015,242.555c13.205,-7.15 34.243,-7.368 46.951,-0.487c12.709,6.881 12.306,18.272 -0.899,25.422c-13.205,7.15 -34.244,7.369 -46.952,0.487c-12.709,-6.881 -12.305,-18.272 0.9,-25.422Z" style="fill:#14b053;stroke:#fff;stroke-width:14.24px;"/><path d="M247.015,242.555c13.205,-7.15 34.243,-7.368 46.951,-0.487c12.709,6.881 12.306,18.272 -0.899,25.422c-13.205,7.15 -34.244,7.369 -46.952,0.487c-12.709,-6.881 -12.305,-18.272 0.9,-25.422Z" style="fill:#14b053;stroke:#fff;stroke-width:14.24px;"/></g><g><path d="M239.135,174.831c0.316,-4.489 3.711,-8.982 10.149,-12.468c13.205,-7.15 34.243,-7.368 46.952,-0.487c6.513,3.527 9.582,8.238 9.249,12.955l0.024,-0l0,19.885l-0.194,0c-0.81,4.06 -4.145,8.047 -9.979,11.205c-13.205,7.15 -34.243,7.369 -46.952,0.488c-5.931,-3.212 -9.006,-7.406 -9.257,-11.693l-0.017,0l0,-19.885l0.025,-0Z" style="fill:#14b053;stroke:#fff;stroke-width:14.24px;"/><path d="M249.284,162.363c13.205,-7.15 34.243,-7.368 46.952,-0.487c12.708,6.881 12.305,18.273 -0.9,25.423c-13.205,7.15 -34.243,7.368 -46.952,0.487c-12.708,-6.881 -12.305,-18.273 0.9,-25.423Z" style="fill:#14b053;stroke:#fff;stroke-width:14.24px;"/><path d="M249.284,162.363c13.205,-7.15 34.243,-7.368 46.952,-0.487c12.708,6.881 12.305,18.273 -0.9,25.423c-13.205,7.15 -34.243,7.368 -46.952,0.487c-12.708,-6.881 -12.305,-18.273 0.9,-25.423Z" style="fill:#14b053;stroke:#fff;stroke-width:14.24px;"/></g></g></svg>