<?xml version="1.0" encoding="UTF-8" standalone="no"?>
<!DOCTYPE svg PUBLIC "-//W3C//DTD SVG 1.1//EN" "http://www.w3.org/Graphics/SVG/1.1/DTD/svg11.dtd">
<svg width="100%" height="100%" viewBox="0 0 170 170" version="1.1" xmlns="http://www.w3.org/2000/svg" xmlns:xlink="http://www.w3.org/1999/xlink" xml:space="preserve" xmlns:serif="http://www.serif.com/" style="fill-rule:evenodd;clip-rule:evenodd;stroke-linecap:round;stroke-miterlimit:2;">
    <g transform="matrix(1.29829,0,0,1.29829,-538.148,-363.072)">
        <g transform="matrix(0.79366,0,0,0.79366,48.0958,-64.8514)">
            <circle cx="544.39" cy="517.836" r="61.39" style="fill:rgb(0,140,255);"/>
        </g>
        <g transform="matrix(1.05013,0,0,1.05013,162.239,196.911)">
            <path d="M264.443,99.872C265.297,99.224 266.439,98.886 267.707,98.685C267.702,98.706 267.697,98.727 267.692,98.748C267.709,98.746 267.725,98.743 267.742,98.741C267.434,100.028 266.983,101.158 266.227,101.954C265.898,102.301 265.512,102.584 265.054,102.79C264.471,103.1 263.764,103.275 262.899,103.28C258.005,108.297 254.048,114.233 251.324,120.807C248.607,127.367 247.119,134.561 247.133,142.1C247.183,156.914 253.043,170.363 262.558,180.279C272.089,190.211 285.286,196.595 299.954,197.246C300.223,197.259 300.432,197.489 300.419,197.758C300.406,198.028 300.176,198.237 299.906,198.224C299.116,198.183 298.331,198.125 297.551,198.052C298.091,201.065 296.3,202.494 293.861,203.485C293.86,202.161 294.036,200.957 294.586,200.007C295.135,199.058 296.056,198.361 297.547,198.051C283.619,196.74 271.173,190.339 262.085,180.73C252.555,170.653 246.717,157.05 246.768,142.1C246.782,134.517 248.313,127.29 251.063,120.698C253.814,114.105 257.786,108.147 262.704,103.114C262.823,101.535 263.471,100.528 264.443,99.872ZM337.446,98.748C337.429,98.746 337.413,98.743 337.397,98.741C337.704,100.028 338.155,101.158 338.911,101.954C339.24,102.301 339.626,102.584 340.084,102.79C340.667,103.1 341.375,103.275 342.239,103.28C347.133,108.297 351.09,114.233 353.814,120.807C356.532,127.367 358.02,134.561 358.005,142.1C357.955,156.914 352.095,170.363 342.58,180.279C333.049,190.211 319.852,196.595 305.185,197.246C304.915,197.259 304.706,197.489 304.719,197.758C304.732,198.028 304.962,198.237 305.232,198.224C306.022,198.183 306.808,198.125 307.587,198.052C307.047,201.065 308.838,202.494 311.277,203.485C311.278,202.161 311.102,200.957 310.552,200.007C310.004,199.058 309.082,198.361 307.592,198.051C321.519,196.74 333.966,190.339 343.053,180.73C352.583,170.653 358.421,157.05 358.371,142.1C358.356,134.517 356.825,127.29 354.075,120.698C351.324,114.105 347.352,108.147 342.434,103.114C342.316,101.535 341.668,100.528 340.696,99.872C339.841,99.224 338.699,98.886 337.431,98.685C337.436,98.706 337.441,98.727 337.446,98.748ZM288.544,202.485C288.659,201.166 288.939,199.982 289.569,199.084C290.2,198.185 291.18,197.571 292.694,197.393C292.97,200.443 291.06,201.711 288.544,202.485ZM316.594,202.485C316.479,201.166 316.199,199.982 315.569,199.084C314.939,198.185 313.959,197.571 312.444,197.393C312.168,200.443 314.078,201.711 316.594,202.485ZM321.803,201.026C321.574,199.722 321.191,198.567 320.485,197.727C319.779,196.886 318.75,196.36 317.226,196.315C317.216,199.377 319.229,200.474 321.803,201.026ZM283.335,201.026C283.564,199.722 283.947,198.567 284.653,197.727C285.359,196.886 286.389,196.36 287.913,196.315C287.922,199.377 285.909,200.474 283.335,201.026ZM278.273,199.118C278.615,197.839 279.096,196.722 279.873,195.946C280.65,195.171 281.721,194.737 283.243,194.824C282.986,197.875 280.885,198.793 278.273,199.118ZM326.865,199.118C326.523,197.839 326.042,196.722 325.265,195.946C324.489,195.171 323.417,194.737 321.895,194.824C322.152,197.875 324.253,198.793 326.865,199.118ZM310.194,191.098C310.424,192.402 310.46,193.618 310.084,194.649C309.708,195.68 308.92,196.527 307.503,197.091C306.447,194.216 307.963,192.497 310.194,191.098ZM294.944,191.098C294.714,192.402 294.678,193.618 295.054,194.649C295.431,195.68 296.218,196.527 297.635,197.091C298.691,194.216 297.175,192.497 294.944,191.098ZM331.742,196.776C331.29,195.532 330.713,194.461 329.872,193.756C329.03,193.051 327.925,192.712 326.416,192.932C326.939,195.949 329.111,196.68 331.742,196.776ZM273.396,196.776C273.848,195.532 274.425,194.461 275.267,193.756C276.108,193.051 277.213,192.712 278.722,192.932C278.2,195.949 276.027,196.68 273.396,196.776ZM290.703,190.24C290.36,191.519 290.219,192.727 290.503,193.787C290.788,194.847 291.499,195.759 292.861,196.444C294.164,193.673 292.803,191.828 290.703,190.24ZM314.435,190.24C314.778,191.519 314.92,192.727 314.635,193.787C314.35,194.847 313.639,195.759 312.277,196.444C310.974,193.673 312.335,191.828 314.435,190.24ZM286.553,189.016C286.1,190.259 285.853,191.451 286.045,192.532C286.236,193.612 286.865,194.583 288.162,195.384C289.701,192.737 288.506,190.781 286.553,189.016ZM318.585,189.016C319.038,190.259 319.285,191.451 319.093,192.532C318.902,193.612 318.273,194.583 316.976,195.384C315.437,192.737 316.632,190.781 318.585,189.016ZM336.396,194.018C335.837,192.819 335.169,191.802 334.27,191.173C333.37,190.544 332.239,190.303 330.755,190.653C331.539,193.613 333.767,194.152 336.396,194.018ZM268.742,194.018C269.301,192.819 269.969,191.802 270.869,191.173C271.768,190.544 272.899,190.303 274.383,190.653C273.599,193.613 271.371,194.152 268.742,194.018ZM282.525,187.434C281.965,188.634 281.616,189.799 281.713,190.892C281.809,191.986 282.351,193.007 283.573,193.919C285.337,191.416 284.317,189.363 282.525,187.434ZM322.613,187.434C323.173,188.634 323.522,189.799 323.426,190.892C323.329,191.986 322.787,193.007 321.565,193.919C319.801,191.416 320.821,189.363 322.613,187.434ZM278.651,185.508C277.988,186.654 277.539,187.784 277.54,188.882C277.54,189.979 277.991,191.044 279.129,192.059C281.105,189.719 280.268,187.585 278.651,185.508ZM326.488,185.508C327.15,186.654 327.599,187.784 327.599,188.882C327.598,189.979 327.147,191.044 326.009,192.059C324.033,189.719 324.87,187.585 326.488,185.508ZM264.346,190.865C265.007,189.719 265.762,188.764 266.713,188.216C267.663,187.668 268.811,187.526 270.259,188.005C269.22,190.885 266.954,191.228 264.346,190.865ZM340.792,190.865C340.131,189.719 339.376,188.764 338.426,188.216C337.475,187.668 336.327,187.526 334.88,188.005C335.918,190.885 338.185,191.228 340.792,190.865ZM274.959,183.251C274.199,184.335 273.653,185.422 273.558,186.515C273.463,187.609 273.819,188.709 274.865,189.819C277.036,187.66 276.389,185.461 274.959,183.251ZM330.179,183.251C330.939,184.335 331.485,185.422 331.58,186.515C331.675,187.609 331.319,188.709 330.274,189.819C328.102,187.66 328.749,185.461 330.179,183.251ZM344.897,187.341C344.138,186.257 343.303,185.372 342.308,184.909C341.313,184.445 340.158,184.404 338.757,185.007C340.043,187.786 342.331,187.929 344.897,187.341ZM260.242,187.341C261,186.257 261.835,185.372 262.83,184.909C263.825,184.445 264.981,184.404 266.381,185.007C265.095,187.786 262.808,187.929 260.242,187.341ZM333.661,180.681C334.512,181.694 335.151,182.73 335.341,183.811C335.531,184.892 335.272,186.018 334.327,187.215C331.975,185.254 332.429,183.007 333.661,180.681ZM271.478,180.681C270.626,181.694 269.987,182.73 269.797,183.811C269.608,184.892 269.867,186.018 270.811,187.215C273.163,185.254 272.71,183.007 271.478,180.681ZM336.905,177.817C337.841,178.752 338.568,179.728 338.851,180.789C339.134,181.849 338.975,182.994 338.138,184.269C335.624,182.52 335.88,180.242 336.905,177.817ZM268.234,177.817C267.297,178.752 266.571,179.728 266.287,180.789C266.004,181.849 266.164,182.994 267,184.269C269.514,182.52 269.258,180.242 268.234,177.817ZM348.678,183.473C347.828,182.459 346.919,181.65 345.888,181.275C344.856,180.9 343.701,180.96 342.359,181.682C343.882,184.339 346.173,184.282 348.678,183.473ZM256.46,183.473C257.31,182.459 258.219,181.65 259.251,181.275C260.282,180.9 261.437,180.96 262.779,181.682C261.257,184.339 258.965,184.282 256.46,183.473ZM339.887,174.681C340.901,175.532 341.71,176.44 342.085,177.472C342.459,178.504 342.4,179.658 341.677,181.001C339.021,179.478 339.077,177.186 339.887,174.681ZM265.252,174.681C264.237,175.532 263.428,176.44 263.054,177.472C262.679,178.504 262.738,179.658 263.461,181.001C266.117,179.478 266.061,177.186 265.252,174.681ZM253.03,179.29C253.965,178.353 254.941,177.627 256.001,177.343C257.062,177.06 258.207,177.22 259.481,178.057C257.733,180.57 255.455,180.314 253.03,179.29ZM352.108,179.29C351.173,178.353 350.197,177.627 349.137,177.343C348.076,177.06 346.931,177.22 345.657,178.057C347.406,180.57 349.684,180.314 352.108,179.29ZM262.554,171.298C261.47,172.057 260.585,172.891 260.121,173.886C259.658,174.881 259.617,176.037 260.219,177.437C262.999,176.152 263.142,173.864 262.554,171.298ZM342.584,171.298C343.669,172.057 344.554,172.891 345.017,173.886C345.48,174.881 345.522,176.037 344.919,177.437C342.14,176.152 341.996,173.864 342.584,171.298ZM355.161,174.824C354.147,173.972 353.112,173.333 352.031,173.143C350.95,172.954 349.823,173.213 348.626,174.157C350.588,176.509 352.835,176.056 355.161,174.824ZM249.977,174.824C250.991,173.972 252.026,173.333 253.107,173.143C254.188,172.954 255.315,173.213 256.512,174.157C254.551,176.509 252.304,176.056 249.977,174.824ZM260.162,167.692C259.015,168.353 258.061,169.108 257.513,170.059C256.965,171.009 256.823,172.157 257.301,173.605C260.182,172.566 260.524,170.3 260.162,167.692ZM344.976,167.692C346.123,168.353 347.077,169.108 347.625,170.059C348.174,171.009 348.316,172.157 347.837,173.605C344.957,172.566 344.614,170.3 344.976,167.692ZM247.326,170.108C248.41,169.349 249.497,168.802 250.59,168.707C251.684,168.612 252.783,168.969 253.893,170.014C251.735,172.186 249.536,171.538 247.326,170.108ZM357.813,170.108C356.729,169.349 355.642,168.802 354.548,168.707C353.455,168.612 352.355,168.969 351.245,170.014C353.403,172.186 355.602,171.538 357.813,170.108ZM347.045,163.891C348.245,164.45 349.261,165.119 349.89,166.018C350.519,166.918 350.761,168.048 350.41,169.532C347.45,168.749 346.912,166.521 347.045,163.891ZM258.093,163.891C256.893,164.45 255.877,165.119 255.248,166.018C254.619,166.918 254.377,168.048 254.728,169.532C257.688,168.749 258.227,166.521 258.093,163.891ZM245.095,165.18C246.241,164.517 247.372,164.068 248.469,164.069C249.567,164.069 250.631,164.52 251.646,165.658C249.306,167.634 247.172,166.797 245.095,165.18ZM360.043,165.18C358.897,164.517 357.767,164.068 356.669,164.069C355.571,164.069 354.507,164.52 353.492,165.658C355.832,167.634 357.966,166.797 360.043,165.18ZM348.775,159.925C350.019,160.377 351.09,160.954 351.795,161.796C352.5,162.637 352.839,163.742 352.619,165.251C349.602,164.729 348.871,162.556 348.775,159.925ZM256.363,159.925C255.119,160.377 254.049,160.954 253.344,161.796C252.638,162.637 252.299,163.742 252.519,165.251C255.536,164.729 256.267,162.556 256.363,159.925ZM243.302,160.076C244.502,159.516 245.667,159.166 246.761,159.263C247.854,159.359 248.875,159.901 249.787,161.123C247.284,162.887 245.231,161.868 243.302,160.076ZM361.836,160.076C360.636,159.516 359.471,159.166 358.378,159.263C357.284,159.359 356.263,159.901 355.351,161.123C357.854,162.887 359.907,161.868 361.836,160.076ZM254.986,155.823C253.707,156.165 252.59,156.647 251.815,157.423C251.039,158.2 250.605,159.272 250.692,160.794C253.743,160.536 254.661,158.435 254.986,155.823ZM350.152,155.823C351.431,156.165 352.548,156.647 353.324,157.423C354.099,158.2 354.533,159.272 354.446,160.794C351.395,160.536 350.477,158.435 350.152,155.823ZM363.177,154.835C361.933,154.381 360.742,154.135 359.661,154.326C358.58,154.518 357.61,155.146 356.808,156.443C359.455,157.983 361.412,156.788 363.177,154.835ZM241.962,154.835C243.205,154.381 244.397,154.135 245.477,154.326C246.558,154.518 247.528,155.146 248.33,156.443C245.683,157.983 243.726,156.788 241.962,154.835ZM351.167,151.617C352.47,151.846 353.625,152.228 354.466,152.934C355.306,153.64 355.832,154.67 355.878,156.194C352.815,156.203 351.718,154.191 351.167,151.617ZM253.971,151.617C252.668,151.846 251.513,152.228 250.672,152.934C249.832,153.64 249.306,154.67 249.261,156.194C252.323,156.203 253.42,154.191 253.971,151.617ZM241.083,149.497C242.361,149.154 243.569,149.012 244.629,149.297C245.689,149.582 246.601,150.293 247.286,151.655C244.515,152.957 242.67,151.597 241.083,149.497ZM364.056,149.497C362.777,149.154 361.569,149.012 360.509,149.297C359.449,149.582 358.537,150.293 357.852,151.655C360.623,152.957 362.468,151.597 364.056,149.497ZM253.327,147.338C252.008,147.452 250.825,147.733 249.926,148.363C249.027,148.993 248.414,149.973 248.235,151.487C251.285,151.763 252.553,149.854 253.327,147.338ZM351.811,147.338C353.13,147.452 354.314,147.733 355.212,148.363C356.111,148.993 356.725,149.973 356.903,151.487C353.853,151.763 352.585,149.854 351.811,147.338ZM364.466,144.102C363.163,143.872 361.947,143.836 360.915,144.212C359.884,144.589 359.038,145.376 358.474,146.793C361.348,147.849 363.067,146.333 364.466,144.102ZM240.672,144.102C241.976,143.872 243.192,143.836 244.223,144.212C245.254,144.589 246.1,145.376 246.664,146.793C243.79,147.849 242.071,146.333 240.672,144.102ZM352.08,143.019C353.404,143.018 354.607,143.194 355.558,143.744C356.508,144.293 357.204,145.216 357.514,146.709C354.5,147.25 353.07,145.458 352.08,143.019ZM253.058,143.019C251.735,143.018 250.531,143.194 249.581,143.744C248.63,144.293 247.934,145.216 247.624,146.709C250.638,147.25 252.068,145.458 253.058,143.019ZM253.167,138.693C251.848,138.577 250.634,138.648 249.639,139.112C248.645,139.577 247.87,140.435 247.432,141.895C250.387,142.697 251.968,141.037 253.167,138.693ZM240.733,138.693C242.052,138.577 243.267,138.648 244.261,139.112C245.255,139.577 246.03,140.435 246.468,141.895C243.513,142.697 241.932,141.037 240.733,138.693ZM351.971,138.693C353.29,138.577 354.504,138.648 355.499,139.112C356.493,139.577 357.268,140.435 357.706,141.895C354.751,142.697 353.17,141.037 351.971,138.693ZM364.405,138.693C363.086,138.577 361.872,138.648 360.877,139.112C359.883,139.577 359.108,140.435 358.67,141.895C361.625,142.697 363.206,141.037 364.405,138.693ZM253.652,134.393C252.349,134.163 251.133,134.127 250.101,134.503C249.07,134.879 248.224,135.667 247.66,137.084C250.534,138.14 252.253,136.623 253.652,134.393ZM351.486,134.393C352.79,134.163 354.006,134.127 355.037,134.503C356.068,134.879 356.914,135.667 357.478,137.084C354.604,138.14 352.885,136.623 351.486,134.393ZM241.266,133.31C242.59,133.309 243.793,133.485 244.744,134.034C245.694,134.584 246.39,135.507 246.7,137C243.686,137.541 242.256,135.749 241.266,133.31ZM363.872,133.31C362.549,133.309 361.345,133.485 360.395,134.034C359.444,134.584 358.748,135.507 358.438,137C361.452,137.541 362.882,135.749 363.872,133.31ZM254.51,130.152C253.232,129.809 252.023,129.667 250.963,129.952C249.903,130.237 248.992,130.948 248.306,132.31C251.078,133.612 252.922,132.252 254.51,130.152ZM350.628,130.152C351.906,129.809 353.115,129.667 354.175,129.952C355.235,130.237 356.147,130.948 356.832,132.31C354.061,133.612 352.216,132.252 350.628,130.152ZM362.873,127.993C361.554,128.108 360.37,128.388 359.471,129.018C358.573,129.648 357.959,130.628 357.781,132.143C360.83,132.419 362.099,130.509 362.873,127.993ZM242.266,127.993C243.584,128.108 244.768,128.388 245.667,129.018C246.566,129.648 247.179,130.628 247.357,132.143C244.308,132.419 243.039,130.509 242.266,127.993ZM255.735,126.002C254.491,125.549 253.3,125.302 252.219,125.494C251.138,125.685 250.168,126.314 249.366,127.611C252.013,129.15 253.97,127.955 255.735,126.002ZM349.404,126.002C350.647,125.549 351.839,125.302 352.919,125.494C354,125.685 354.97,126.314 355.772,127.611C353.125,129.15 351.168,127.955 349.404,126.002ZM361.413,122.784C360.11,123.013 358.955,123.395 358.114,124.102C357.274,124.808 356.748,125.837 356.703,127.361C359.765,127.371 360.862,125.358 361.413,122.784ZM243.725,122.784C245.029,123.013 246.183,123.395 247.024,124.102C247.864,124.808 248.39,125.837 248.436,127.361C245.374,127.371 244.276,125.358 243.725,122.784ZM257.316,121.974C256.117,121.414 254.951,121.065 253.858,121.161C252.765,121.258 251.743,121.799 250.832,123.022C253.335,124.786 255.388,123.766 257.316,121.974ZM347.822,121.974C349.021,121.414 350.187,121.065 351.28,121.161C352.373,121.258 353.395,121.799 354.306,123.022C351.803,124.786 349.75,123.766 347.822,121.974ZM245.633,117.722C246.911,118.064 248.028,118.545 248.804,119.322C249.58,120.098 250.014,121.17 249.926,122.692C246.875,122.435 245.958,120.334 245.633,117.722ZM359.506,117.722C358.227,118.064 357.11,118.545 356.334,119.322C355.558,120.098 355.124,121.17 355.212,122.692C358.263,122.435 359.18,120.334 359.506,117.722ZM345.895,118.099C347.041,117.437 348.172,116.988 349.27,116.988C350.367,116.989 351.432,117.44 352.446,118.578C350.107,120.553 347.973,119.717 345.895,118.099ZM259.243,118.099C258.097,117.437 256.966,116.988 255.869,116.988C254.771,116.989 253.706,117.44 252.692,118.578C255.031,120.553 257.166,119.717 259.243,118.099ZM247.974,112.845C249.218,113.297 250.289,113.874 250.994,114.715C251.699,115.557 252.038,116.662 251.819,118.171C248.801,117.648 248.071,115.476 247.974,112.845ZM357.164,112.845C355.92,113.297 354.849,113.874 354.144,114.715C353.439,115.557 353.1,116.662 353.32,118.171C356.337,117.648 357.068,115.476 357.164,112.845ZM261.5,114.407C260.416,113.648 259.329,113.102 258.235,113.007C257.142,112.912 256.042,113.268 254.932,114.313C257.091,116.485 259.29,115.838 261.5,114.407ZM343.638,114.407C344.722,113.648 345.809,113.102 346.903,113.007C347.996,112.912 349.096,113.268 350.206,114.313C348.048,116.485 345.849,115.838 343.638,114.407ZM250.732,108.191C251.932,108.75 252.949,109.418 253.578,110.317C254.207,111.217 254.448,112.348 254.097,113.832C251.137,113.048 250.599,110.82 250.732,108.191ZM354.406,108.191C353.206,108.75 352.19,109.418 351.561,110.317C350.932,111.217 350.69,112.348 351.041,113.832C354.001,113.048 354.54,110.82 354.406,108.191ZM264.07,110.926C263.056,110.075 262.021,109.436 260.94,109.246C259.859,109.056 258.732,109.315 257.535,110.26C259.496,112.612 261.743,112.158 264.07,110.926ZM341.068,110.926C342.082,110.075 343.117,109.436 344.198,109.246C345.279,109.056 346.406,109.315 347.603,110.26C345.642,112.612 343.395,112.158 341.068,110.926ZM351.253,103.795C350.107,104.456 349.152,105.21 348.604,106.161C348.056,107.112 347.914,108.26 348.392,109.707C351.273,108.669 351.615,106.402 351.253,103.795ZM253.885,103.795C255.032,104.456 255.986,105.21 256.534,106.161C257.082,107.112 257.224,108.26 256.746,109.707C253.865,108.669 253.523,106.402 253.885,103.795ZM338.205,107.682C339.14,106.746 340.116,106.019 341.176,105.736C342.237,105.452 343.382,105.612 344.656,106.449C342.908,108.963 340.63,108.707 338.205,107.682ZM266.934,107.682C265.998,106.746 265.022,106.019 263.962,105.736C262.902,105.452 261.756,105.612 260.482,106.449C262.231,108.963 264.509,108.707 266.934,107.682ZM347.729,99.69C346.645,100.449 345.759,101.284 345.296,102.279C344.833,103.274 344.792,104.429 345.394,105.83C348.174,104.544 348.317,102.256 347.729,99.69ZM257.409,99.69C258.494,100.449 259.379,101.284 259.842,102.279C260.305,103.274 260.347,104.429 259.744,105.83C256.965,104.544 256.821,102.256 257.409,99.69ZM334.051,87.275L329.903,91.01L325.069,88.219L327.339,93.319L323.191,97.054L328.742,96.47L331.013,101.57L332.173,96.11L337.725,95.526L332.89,92.735L334.051,87.275ZM271.087,87.275L275.235,91.01L280.069,88.219L277.799,93.319L281.947,97.054L276.396,96.47L274.126,101.57L272.965,96.11L267.414,95.526L272.248,92.735L271.087,87.275ZM286.355,80.951L289.395,85.632L294.787,84.188L291.274,88.526L294.314,93.207L289.103,91.207L285.59,95.545L285.883,89.97L280.671,87.97L286.063,86.525L286.355,80.951ZM318.783,80.951L315.743,85.632L310.351,84.188L313.864,88.526L310.824,93.207L316.035,91.207L319.548,95.545L319.256,89.97L324.467,87.97L319.075,86.525L318.783,80.951ZM302.74,78.794L304.465,84.103L310.047,84.103L305.531,87.384L307.256,92.692L302.74,89.411L298.224,92.692L299.949,87.384L295.433,84.103L301.015,84.103L302.74,78.794Z" style="fill:rgb(0,140,255);"/>
        </g>
        <g transform="matrix(0.770136,-0.0129557,0.0129557,0.770136,198.989,152.305)">
            <g transform="matrix(0.836846,-0.547439,0.547439,0.836846,-71.5748,223.871)">
                <g transform="matrix(26,0,0,26,339.794,232.015)">
                    <path d="M0.172,-0.598L0.172,-0L0.101,-0L0.101,-0.598L0.012,-0.598L0.012,-0.666L0.258,-0.666L0.258,-0.598L0.172,-0.598Z" style="fill:white;fill-rule:nonzero;"/>
                </g>
            </g>
            <g transform="matrix(0.954802,-0.297242,0.297242,0.954802,-52.1189,113.02)">
                <g transform="matrix(26,0,0,26,345.576,227.889)">
                    <path d="M0.333,-0L0.266,-0L0.213,-0.432L0.154,-0L0.086,-0L0.011,-0.666L0.082,-0.666L0.125,-0.188L0.19,-0.666L0.249,-0.666L0.305,-0.188L0.354,-0.666L0.421,-0.666L0.333,-0Z" style="fill:white;fill-rule:nonzero;"/>
                </g>
            </g>
            <g transform="matrix(0.998462,-0.0554396,0.0554396,0.998462,-11.9191,20.1363)">
                <g transform="matrix(26,0,0,26,356.972,224.896)">
                    <rect x="0.037" y="-0.666" width="0.073" height="0.666" style="fill:white;fill-rule:nonzero;"/>
                </g>
            </g>
            <g transform="matrix(0.988737,0.149663,-0.149663,0.988737,37.6879,-51.6685)">
                <g transform="matrix(26,0,0,26,362.131,224.565)">
                    <path d="M0.037,-0L0.037,-0.666L0.109,-0.666L0.109,-0.069L0.244,-0.069L0.244,-0L0.037,-0Z" style="fill:white;fill-rule:nonzero;"/>
                </g>
            </g>
            <g transform="matrix(0.939999,0.341176,-0.341176,0.939999,99.335,-112.74)">
                <g transform="matrix(26,0,0,26,370.199,226.05)">
                    <rect x="0.037" y="-0.666" width="0.073" height="0.666" style="fill:white;fill-rule:nonzero;"/>
                </g>
            </g>
            <g transform="matrix(0.843773,0.536701,-0.536701,0.843773,180.751,-165.659)">
                <g transform="matrix(26,0,0,26,374.926,227.645)">
                    <path d="M0.287,-0.129C0.287,-0.088 0.276,-0.055 0.253,-0.029C0.23,-0.003 0.198,0.01 0.159,0.01C0.12,0.01 0.089,-0.003 0.066,-0.029C0.043,-0.055 0.031,-0.088 0.031,-0.129L0.031,-0.537C0.031,-0.557 0.034,-0.576 0.04,-0.593C0.046,-0.61 0.055,-0.624 0.066,-0.637C0.077,-0.649 0.09,-0.659 0.106,-0.666C0.122,-0.673 0.14,-0.676 0.159,-0.676C0.178,-0.676 0.196,-0.673 0.212,-0.666C0.228,-0.659 0.242,-0.649 0.253,-0.637C0.264,-0.624 0.272,-0.61 0.278,-0.593C0.284,-0.576 0.287,-0.557 0.287,-0.537L0.287,-0.129ZM0.216,-0.547C0.216,-0.564 0.211,-0.579 0.202,-0.59C0.192,-0.601 0.178,-0.607 0.159,-0.607C0.14,-0.607 0.126,-0.601 0.117,-0.59C0.108,-0.579 0.103,-0.564 0.103,-0.547L0.103,-0.119C0.103,-0.102 0.108,-0.087 0.117,-0.076C0.126,-0.065 0.14,-0.059 0.159,-0.059C0.178,-0.059 0.192,-0.065 0.202,-0.076C0.211,-0.087 0.216,-0.102 0.216,-0.119L0.216,-0.547Z" style="fill:white;fill-rule:nonzero;"/>
                </g>
            </g>
            <g transform="matrix(0.680302,0.732932,-0.732932,0.680302,314.711,-141.832)">
                <g transform="matrix(26,0,0,26,319.935,289.833)">
                    <path d="M0.289,-0.147C0.289,-0.1 0.28,-0.064 0.261,-0.039C0.242,-0.013 0.21,-0 0.167,-0L0.037,-0L0.037,-0.666L0.167,-0.666C0.21,-0.666 0.242,-0.653 0.261,-0.628C0.28,-0.602 0.289,-0.566 0.289,-0.519L0.289,-0.147ZM0.217,-0.524C0.217,-0.549 0.213,-0.568 0.205,-0.579C0.197,-0.59 0.184,-0.596 0.165,-0.596L0.11,-0.596L0.11,-0.07L0.165,-0.07C0.184,-0.07 0.197,-0.076 0.205,-0.087C0.213,-0.098 0.217,-0.116 0.217,-0.141L0.217,-0.524Z" style="fill:white;fill-rule:nonzero;"/>
                </g>
            </g>
            <g transform="matrix(0.819611,0.57292,-0.57292,0.819611,229.954,-134.21)">
                <g transform="matrix(26,0,0,26,328.104,298.065)">
                    <path d="M0.037,-0L0.037,-0.666L0.249,-0.666L0.249,-0.599L0.109,-0.599L0.109,-0.377L0.21,-0.377L0.21,-0.312L0.109,-0.312L0.109,-0.067L0.249,-0.067L0.249,-0L0.037,-0Z" style="fill:white;fill-rule:nonzero;"/>
                </g>
            </g>
            <g transform="matrix(0.91759,0.397527,-0.397527,0.91759,148.488,-108.812)">
                <g transform="matrix(26,0,0,26,336.686,303.732)">
                    <path d="M0.182,-0L0.109,-0L0.011,-0.666L0.086,-0.666L0.147,-0.157L0.215,-0.666L0.285,-0.666L0.182,-0Z" style="fill:white;fill-rule:nonzero;"/>
                </g>
            </g>
            <g transform="matrix(0.980125,0.198383,-0.198383,0.980125,67.9422,-62.6829)">
                <g transform="matrix(26,0,0,26,346.801,307.736)">
                    <path d="M0.037,-0L0.037,-0.666L0.249,-0.666L0.249,-0.599L0.109,-0.599L0.109,-0.377L0.21,-0.377L0.21,-0.312L0.109,-0.312L0.109,-0.067L0.249,-0.067L0.249,-0L0.037,-0Z" style="fill:white;fill-rule:nonzero;"/>
                </g>
            </g>
            <g transform="matrix(0.999995,0.00317132,-0.00317132,0.999995,0.983287,-1.13039)">
                <g transform="matrix(26,0,0,26,356.931,309.49)">
                    <path d="M0.037,-0L0.037,-0.666L0.109,-0.666L0.109,-0.069L0.244,-0.069L0.244,-0L0.037,-0Z" style="fill:white;fill-rule:nonzero;"/>
                </g>
            </g>
            <g transform="matrix(0.9815,-0.191463,0.191463,0.9815,-52.4434,75.9214)">
                <g transform="matrix(26,0,0,26,366.643,309.336)">
                    <path d="M0.287,-0.129C0.287,-0.088 0.276,-0.055 0.253,-0.029C0.23,-0.003 0.198,0.01 0.159,0.01C0.12,0.01 0.089,-0.003 0.066,-0.029C0.043,-0.055 0.031,-0.088 0.031,-0.129L0.031,-0.537C0.031,-0.557 0.034,-0.576 0.04,-0.593C0.046,-0.61 0.055,-0.624 0.066,-0.637C0.077,-0.649 0.09,-0.659 0.106,-0.666C0.122,-0.673 0.14,-0.676 0.159,-0.676C0.178,-0.676 0.196,-0.673 0.212,-0.666C0.228,-0.659 0.242,-0.649 0.253,-0.637C0.264,-0.624 0.272,-0.61 0.278,-0.593C0.284,-0.576 0.287,-0.557 0.287,-0.537L0.287,-0.129ZM0.216,-0.547C0.216,-0.564 0.211,-0.579 0.202,-0.59C0.192,-0.601 0.178,-0.607 0.159,-0.607C0.14,-0.607 0.126,-0.601 0.117,-0.59C0.108,-0.579 0.103,-0.564 0.103,-0.547L0.103,-0.119C0.103,-0.102 0.108,-0.087 0.117,-0.076C0.126,-0.065 0.14,-0.059 0.159,-0.059C0.178,-0.059 0.192,-0.065 0.202,-0.076C0.211,-0.087 0.216,-0.102 0.216,-0.119L0.216,-0.547Z" style="fill:white;fill-rule:nonzero;"/>
                </g>
            </g>
            <g transform="matrix(0.914215,-0.40523,0.40523,0.914215,-91.8881,179.457)">
                <g transform="matrix(26,0,0,26,377.914,306.758)">
                    <path d="M0.28,-0.403C0.28,-0.381 0.277,-0.362 0.271,-0.347C0.265,-0.332 0.257,-0.319 0.247,-0.31C0.237,-0.3 0.225,-0.293 0.212,-0.289C0.198,-0.284 0.183,-0.282 0.168,-0.282L0.109,-0.282L0.109,-0L0.037,-0L0.037,-0.666L0.168,-0.666C0.183,-0.666 0.198,-0.664 0.212,-0.66C0.225,-0.655 0.237,-0.648 0.247,-0.639C0.257,-0.629 0.265,-0.616 0.271,-0.601C0.277,-0.586 0.28,-0.567 0.28,-0.545L0.28,-0.403ZM0.207,-0.55C0.207,-0.582 0.194,-0.598 0.169,-0.598L0.109,-0.598L0.109,-0.347L0.169,-0.347C0.194,-0.347 0.207,-0.363 0.207,-0.396L0.207,-0.55Z" style="fill:white;fill-rule:nonzero;"/>
                </g>
            </g>
            <g transform="matrix(0.813122,-0.582094,0.582094,0.813122,-103.333,282.18)">
                <g transform="matrix(26,0,0,26,387.804,302.022)">
                    <path d="M0.037,-0L0.037,-0.666L0.249,-0.666L0.249,-0.599L0.109,-0.599L0.109,-0.377L0.21,-0.377L0.21,-0.312L0.109,-0.312L0.109,-0.067L0.249,-0.067L0.249,-0L0.037,-0Z" style="fill:white;fill-rule:nonzero;"/>
                </g>
            </g>
            <g transform="matrix(0.673725,-0.738982,0.738982,0.673725,-89.3959,389.195)">
                <g transform="matrix(26,0,0,26,396.047,295.834)">
                    <path d="M0.278,0.006C0.254,0.006 0.237,0.001 0.227,-0.009C0.216,-0.019 0.211,-0.038 0.211,-0.066L0.211,-0.238C0.211,-0.255 0.207,-0.269 0.2,-0.279C0.192,-0.288 0.18,-0.293 0.165,-0.293L0.11,-0.293L0.11,-0L0.037,-0L0.037,-0.666L0.169,-0.666C0.184,-0.666 0.199,-0.664 0.213,-0.66C0.226,-0.656 0.238,-0.649 0.248,-0.64C0.258,-0.63 0.266,-0.617 0.272,-0.602C0.277,-0.587 0.28,-0.568 0.28,-0.546L0.28,-0.419C0.28,-0.394 0.276,-0.374 0.268,-0.358C0.26,-0.342 0.245,-0.331 0.224,-0.324C0.245,-0.317 0.26,-0.305 0.269,-0.288C0.278,-0.271 0.282,-0.251 0.282,-0.23L0.282,-0.069C0.282,-0.06 0.283,-0.053 0.286,-0.049C0.288,-0.045 0.293,-0.043 0.3,-0.043L0.3,0.006L0.278,0.006ZM0.208,-0.551C0.208,-0.582 0.195,-0.598 0.168,-0.598L0.11,-0.598L0.11,-0.356L0.162,-0.356C0.176,-0.356 0.187,-0.361 0.196,-0.371C0.204,-0.38 0.208,-0.394 0.208,-0.411L0.208,-0.551Z" style="fill:white;fill-rule:nonzero;"/>
                </g>
            </g>
        </g>
        <g transform="matrix(1.05013,0,0,1.05013,386.648,221.53)">
            <path d="M57.913,115.95C57.913,116.499 57.838,116.964 57.688,117.346C57.539,117.729 57.339,118.041 57.09,118.282C56.841,118.523 56.545,118.697 56.205,118.805C55.864,118.913 55.502,118.967 55.12,118.967L53.649,118.967L53.649,126L51.853,126L51.853,109.391L55.12,109.391C55.502,109.391 55.864,109.445 56.205,109.553C56.545,109.661 56.841,109.836 57.09,110.077C57.339,110.318 57.539,110.63 57.688,111.012C57.838,111.395 57.913,111.86 57.913,112.409L57.913,115.95ZM56.092,112.284C56.092,111.486 55.777,111.087 55.145,111.087L53.649,111.087L53.649,117.346L55.145,117.346C55.777,117.346 56.092,116.939 56.092,116.125L56.092,112.284Z" style="fill:white;fill-rule:nonzero;stroke:white;stroke-width:1px;"/>
            <path d="M61.504,126L61.504,109.391L63.3,109.391L63.3,124.279L66.666,124.279L66.666,126L61.504,126Z" style="fill:white;fill-rule:nonzero;stroke:white;stroke-width:1px;"/>
            <path d="M74.497,126L74.048,122.409L71.754,122.409L71.23,126L69.534,126L72.053,109.391L73.923,109.391L76.342,126L74.497,126ZM72.951,113.331L71.978,120.738L73.823,120.738L72.951,113.331Z" style="fill:white;fill-rule:nonzero;stroke:white;stroke-width:1px;"/>
            <path d="M82.527,111.087L82.527,126L80.756,126L80.756,111.087L78.537,111.087L78.537,109.391L84.672,109.391L84.672,111.087L82.527,111.087Z" style="fill:white;fill-rule:nonzero;stroke:white;stroke-width:1px;"/>
            <path d="M89.933,111.037L89.933,116.748L92.552,116.748L92.552,118.369L89.933,118.369L89.933,126L88.113,126L88.113,109.391L93.275,109.391L93.275,111.037L89.933,111.037Z" style="fill:white;fill-rule:nonzero;stroke:white;stroke-width:1px;"/>
            <path d="M103.026,122.783C103.026,123.797 102.739,124.628 102.166,125.277C101.592,125.925 100.815,126.249 99.834,126.249C98.853,126.249 98.076,125.925 97.502,125.277C96.929,124.628 96.642,123.797 96.642,122.783L96.642,112.608C96.642,112.109 96.717,111.648 96.866,111.224C97.016,110.8 97.228,110.434 97.502,110.127C97.777,109.819 98.113,109.578 98.512,109.404C98.911,109.229 99.352,109.142 99.834,109.142C100.316,109.142 100.757,109.229 101.156,109.404C101.555,109.578 101.891,109.819 102.166,110.127C102.44,110.434 102.652,110.8 102.802,111.224C102.951,111.648 103.026,112.109 103.026,112.608L103.026,122.783ZM101.255,112.359C101.255,111.927 101.135,111.569 100.894,111.287C100.653,111.004 100.299,110.863 99.834,110.863C99.368,110.863 99.019,111.004 98.787,111.287C98.554,111.569 98.437,111.927 98.437,112.359L98.437,123.032C98.437,123.465 98.554,123.822 98.787,124.105C99.019,124.387 99.368,124.529 99.834,124.529C100.299,124.529 100.653,124.387 100.894,124.105C101.135,123.822 101.255,123.465 101.255,123.032L101.255,112.359Z" style="fill:white;fill-rule:nonzero;stroke:white;stroke-width:1px;"/>
            <path d="M113.001,126.15C112.403,126.15 111.975,126.025 111.717,125.776C111.459,125.526 111.33,125.052 111.33,124.354L111.33,120.065C111.33,119.632 111.235,119.296 111.044,119.055C110.852,118.814 110.566,118.693 110.183,118.693L108.812,118.693L108.812,126L106.991,126L106.991,109.391L110.283,109.391C110.665,109.391 111.027,109.441 111.368,109.541C111.709,109.641 112.004,109.811 112.253,110.052C112.502,110.293 112.698,110.605 112.839,110.987C112.98,111.37 113.051,111.835 113.051,112.384L113.051,115.551C113.051,116.166 112.951,116.673 112.752,117.072C112.552,117.471 112.187,117.754 111.655,117.92C112.17,118.086 112.54,118.386 112.764,118.818C112.989,119.25 113.101,119.732 113.101,120.264L113.101,124.279C113.101,124.512 113.13,124.678 113.188,124.778C113.246,124.878 113.367,124.928 113.55,124.928L113.55,126.15L113.001,126.15ZM111.256,112.259C111.256,111.478 110.923,111.087 110.258,111.087L108.812,111.087L108.812,117.122L110.108,117.122C110.458,117.122 110.736,117.001 110.944,116.76C111.152,116.519 111.256,116.183 111.256,115.75L111.256,112.259Z" style="fill:white;fill-rule:nonzero;stroke:white;stroke-width:1px;"/>
            <path d="M124.223,126L124.223,113.431L123.824,116.324L122.303,126L120.632,126L119.061,116.324L118.662,113.431L118.662,126L117.066,126L117.066,109.391L119.635,109.391L121.131,119.666L121.53,122.559L121.929,119.666L123.4,109.391L125.894,109.391L125.894,126L124.223,126Z" style="fill:white;fill-rule:nonzero;stroke:white;stroke-width:1px;"/>
        </g>
        <g transform="matrix(0.836389,0,0,0.836389,315.806,89.7809)">
            <circle cx="196.5" cy="306.5" r="56.5" style="fill:none;stroke:white;stroke-width:1.12px;stroke-linejoin:round;stroke-miterlimit:1.5;"/>
        </g>
    </g>
</svg>
