<?xml version="1.0" encoding="UTF-8" standalone="no"?><!DOCTYPE svg PUBLIC "-//W3C//DTD SVG 1.1//EN" "http://www.w3.org/Graphics/SVG/1.1/DTD/svg11.dtd"><svg width="100%" height="100%" viewBox="0 0 709 709" version="1.1" xmlns="http://www.w3.org/2000/svg" xmlns:xlink="http://www.w3.org/1999/xlink" xml:space="preserve" xmlns:serif="http://www.serif.com/" style="fill-rule:evenodd;clip-rule:evenodd;stroke-linecap:round;stroke-miterlimit:2;"><g><circle cx="355.138" cy="359.622" r="263.566" style="fill:#008cff;"/><path d="M137.58,119.74c4.856,-3.681 11.342,-5.6 18.546,-6.743c-0.028,0.12 -0.056,0.239 -0.084,0.357c0.092,-0.014 0.185,-0.028 0.279,-0.042c-1.747,7.313 -4.311,13.731 -8.602,18.254c-1.869,1.97 -4.065,3.58 -6.663,4.749c-3.312,1.759 -7.332,2.753 -12.243,2.783c-27.803,28.501 -50.283,62.221 -65.754,99.566c-15.439,37.266 -23.892,78.134 -23.811,120.958c0.286,84.155 33.576,160.556 87.629,216.886c54.141,56.423 129.111,92.691 212.432,96.386c1.532,0.074 2.717,1.378 2.643,2.911c-0.074,1.533 -1.378,2.717 -2.911,2.643c-4.488,-0.233 -8.952,-0.56 -13.38,-0.976c3.069,17.115 -7.108,25.237 -20.964,30.861c-0.003,-7.519 0.997,-14.357 4.118,-19.755c3.118,-5.393 8.353,-9.348 16.82,-11.109c-79.12,-7.448 -149.823,-43.813 -201.448,-98.399c-54.136,-57.241 -87.303,-134.52 -87.013,-219.448c0.081,-43.074 8.778,-84.131 24.402,-121.575c15.628,-37.454 38.191,-71.302 66.129,-99.889c0.674,-8.973 4.354,-14.692 9.875,-18.418Zm414.711,-6.386c-0.092,-0.014 -0.185,-0.028 -0.278,-0.042c1.746,7.313 4.31,13.731 8.602,18.254c1.868,1.97 4.064,3.58 6.662,4.749c3.313,1.759 7.333,2.753 12.243,2.783c27.803,28.501 50.283,62.221 65.754,99.566c15.439,37.266 23.892,78.134 23.812,120.958c-0.287,84.155 -33.577,160.556 -87.629,216.886c-54.142,56.423 -129.112,92.691 -212.432,96.386c-1.533,0.074 -2.717,1.378 -2.644,2.911c0.074,1.533 1.379,2.717 2.911,2.643c4.488,-0.233 8.952,-0.56 13.381,-0.976c-3.07,17.115 7.108,25.237 20.963,30.861c0.003,-7.519 -0.997,-14.357 -4.118,-19.755c-3.118,-5.393 -8.352,-9.348 -16.82,-11.109c79.121,-7.448 149.823,-43.813 201.448,-98.399c54.136,-57.241 87.303,-134.52 87.014,-219.448c-0.081,-43.074 -8.779,-84.131 -24.403,-121.575c-15.628,-37.454 -38.191,-71.302 -66.128,-99.889c-0.674,-8.972 -4.354,-14.691 -9.876,-18.418c-4.856,-3.681 -11.342,-5.6 -18.545,-6.743c0.027,0.12 0.055,0.239 0.083,0.357Zm-277.796,589.3c0.653,-7.491 2.245,-14.216 5.824,-19.321c3.58,-5.105 9.147,-8.591 17.749,-9.603c1.569,17.324 -9.279,24.528 -23.573,28.924Zm159.343,0c-0.652,-7.491 -2.244,-14.216 -5.824,-19.321c-3.579,-5.105 -9.146,-8.591 -17.748,-9.603c-1.57,17.324 9.278,24.528 23.572,28.924Zm29.592,-8.289c-1.302,-7.406 -3.475,-13.967 -7.485,-18.74c-4.011,-4.774 -9.861,-7.762 -18.518,-8.02c-0.054,17.394 11.38,23.626 26.003,26.76Zm-218.527,-0c1.303,-7.406 3.475,-13.967 7.486,-18.74c4.011,-4.774 9.86,-7.762 18.518,-8.02c0.053,17.394 -11.381,23.626 -26.004,26.76Zm-28.757,-10.838c1.943,-7.263 4.679,-13.61 9.09,-18.016c4.412,-4.406 10.5,-6.872 19.147,-6.375c-1.463,17.333 -13.397,22.544 -28.237,24.391Zm276.041,0c-1.943,-7.263 -4.678,-13.61 -9.09,-18.016c-4.412,-4.406 -10.499,-6.872 -19.147,-6.375c1.463,17.333 13.397,22.544 28.237,24.391Zm-94.707,-45.556c1.309,7.405 1.511,14.313 -0.625,20.171c-2.136,5.857 -6.611,10.665 -14.658,13.869c-6,-16.327 2.614,-26.094 15.283,-34.04Zm-86.627,0c-1.308,7.405 -1.511,14.313 0.625,20.171c2.136,5.857 6.611,10.665 14.658,13.869c6,-16.327 -2.613,-26.094 -15.283,-34.04Zm209.038,32.254c-2.569,-7.067 -5.848,-13.151 -10.627,-17.155c-4.779,-4.005 -11.058,-5.932 -19.629,-4.683c2.968,17.14 15.311,21.292 30.256,21.838Zm-331.448,0c2.569,-7.067 5.847,-13.151 10.626,-17.155c4.779,-4.005 11.058,-5.932 19.629,-4.683c-2.968,17.14 -15.311,21.292 -30.255,21.838Zm98.317,-37.128c-1.949,7.262 -2.753,14.126 -1.135,20.148c1.617,6.021 5.656,11.201 13.393,15.094c7.4,-15.742 -0.329,-26.223 -12.258,-35.242Zm134.813,-0c1.949,7.262 2.753,14.126 1.136,20.148c-1.618,6.021 -5.657,11.201 -13.394,15.094c-7.4,-15.742 0.33,-26.223 12.258,-35.242Zm-158.389,-6.956c-2.575,7.064 -3.974,13.832 -2.888,19.972c1.087,6.14 4.659,11.652 12.028,16.204c8.743,-15.037 1.957,-26.151 -9.14,-36.176Zm181.966,-0c2.574,7.064 3.973,13.832 2.887,19.972c-1.087,6.14 -4.659,11.652 -12.027,16.204c-8.744,-15.037 -1.957,-26.151 9.14,-36.176Zm101.179,28.418c-3.175,-6.816 -6.971,-12.591 -12.081,-16.164c-5.11,-3.573 -11.533,-4.945 -19.963,-2.954c4.451,16.816 17.109,19.876 32.044,19.118Zm-384.325,-0c3.175,-6.816 6.971,-12.591 12.081,-16.164c5.11,-3.573 11.533,-4.945 19.963,-2.954c-4.451,16.816 -17.108,19.876 -32.044,19.118Zm78.299,-37.403c-3.18,6.814 -5.164,13.434 -4.617,19.645c0.547,6.211 3.626,12.013 10.569,17.191c10.021,-14.219 4.229,-25.882 -5.952,-36.836Zm227.727,0c3.181,6.814 5.164,13.434 4.617,19.645c-0.547,6.211 -3.625,12.013 -10.569,17.191c-10.021,-14.219 -4.229,-25.882 5.952,-36.836Zm-249.737,-10.944c-3.763,6.51 -6.316,12.932 -6.312,19.167c0.004,6.236 2.565,12.284 9.031,18.047c11.222,-13.291 6.468,-25.414 -2.719,-37.214Zm271.748,-0c3.762,6.51 6.315,12.932 6.311,19.167c-0.004,6.236 -2.564,12.284 -9.03,18.047c-11.222,-13.291 -6.469,-25.414 2.719,-37.214Zm-353.009,30.436c3.757,-6.513 8.042,-11.935 13.444,-15.05c5.401,-3.114 11.92,-3.92 20.144,-1.202c-5.899,16.364 -18.776,18.309 -33.588,16.252Zm434.27,0c-3.758,-6.513 -8.043,-11.935 -13.444,-15.05c-5.402,-3.114 -11.921,-3.92 -20.145,-1.202c5.9,16.364 18.776,18.309 33.589,16.252Zm-373.982,-43.257c-4.316,6.157 -7.419,12.333 -7.958,18.544c-0.54,6.212 1.484,12.461 7.423,18.765c12.338,-12.262 8.659,-24.754 0.535,-37.309Zm313.694,-0c4.315,6.157 7.418,12.333 7.958,18.544c0.539,6.212 -1.485,12.461 -7.424,18.765c-12.337,-12.262 -8.659,-24.754 -0.534,-37.309Zm83.604,23.238c-4.311,-6.161 -9.052,-11.189 -14.705,-13.821c-5.652,-2.632 -12.216,-2.867 -20.172,0.558c7.303,15.787 20.3,16.603 34.877,13.263Zm-480.903,-0c4.311,-6.161 9.052,-11.189 14.705,-13.821c5.653,-2.632 12.216,-2.867 20.172,0.558c-7.303,15.787 -20.299,16.603 -34.877,13.263Zm417.074,-37.838c4.836,5.758 8.465,11.639 9.544,17.78c1.079,6.141 -0.392,12.542 -5.759,19.341c-13.36,-11.141 -10.784,-23.906 -3.785,-37.121Zm-353.245,-0c-4.836,5.758 -8.465,11.639 -9.544,17.78c-1.079,6.141 0.393,12.542 5.76,19.341c13.359,-11.141 10.783,-23.906 3.784,-37.121Zm371.673,-16.269c5.319,5.315 9.448,10.858 11.058,16.881c1.61,6.024 0.701,12.529 -4.052,19.769c-14.28,-9.933 -12.826,-22.874 -7.006,-36.65Zm-390.101,0c-5.319,5.315 -9.447,10.858 -11.057,16.881c-1.61,6.024 -0.702,12.529 4.052,19.769c14.279,-9.933 12.826,-22.874 7.005,-36.65Zm456.985,32.132c-4.831,-5.762 -9.993,-10.358 -15.853,-12.487c-5.861,-2.129 -12.42,-1.791 -20.047,2.314c8.651,15.091 21.669,14.77 35.9,10.173Zm-523.868,-0c4.831,-5.762 9.992,-10.358 15.853,-12.487c5.86,-2.129 12.42,-1.791 20.047,2.314c-8.652,15.091 -21.67,14.77 -35.9,10.173Zm473.924,-49.944c5.762,4.831 10.358,9.993 12.487,15.853c2.129,5.861 1.791,12.42 -2.314,20.047c-15.091,-8.651 -14.771,-21.669 -10.173,-35.9Zm-423.981,0c-5.762,4.831 -10.357,9.993 -12.486,15.853c-2.129,5.861 -1.792,12.42 2.313,20.047c15.091,-8.651 14.771,-21.669 10.173,-35.9Zm-69.429,26.18c5.315,-5.319 10.857,-9.448 16.881,-11.058c6.024,-1.61 12.529,-0.702 19.769,4.052c-9.934,14.28 -22.875,12.826 -36.65,7.006Zm562.839,-0c-5.314,-5.319 -10.857,-9.448 -16.88,-11.058c-6.024,-1.61 -12.529,-0.702 -19.769,4.052c9.933,14.28 22.874,12.826 36.649,7.006Zm-508.733,-45.401c-6.161,4.311 -11.189,9.052 -13.821,14.704c-2.631,5.653 -2.866,12.217 0.558,20.173c15.788,-7.303 16.603,-20.3 13.263,-34.877Zm454.627,0c6.161,4.311 11.189,9.052 13.821,14.704c2.631,5.653 2.867,12.217 -0.558,20.173c-15.787,-7.303 -16.603,-20.3 -13.263,-34.877Zm71.447,20.029c-5.758,-4.836 -11.639,-8.465 -17.78,-9.544c-6.142,-1.079 -12.543,0.393 -19.341,5.759c11.14,13.36 23.905,10.784 37.121,3.785Zm-597.521,-0c5.759,-4.836 11.64,-8.465 17.781,-9.544c6.141,-1.079 12.542,0.393 19.34,5.759c-11.14,13.36 -23.905,10.784 -37.121,3.785Zm57.858,-40.512c-6.514,3.757 -11.936,8.042 -15.05,13.444c-3.114,5.401 -3.921,11.92 -1.203,20.144c16.364,-5.899 18.31,-18.776 16.253,-33.588Zm481.806,-0c6.513,3.757 11.935,8.042 15.049,13.444c3.115,5.401 3.921,11.92 1.203,20.144c-16.364,-5.899 -18.309,-18.776 -16.252,-33.588Zm-554.727,13.725c6.158,-4.315 12.333,-7.418 18.545,-7.958c6.212,-0.539 12.46,1.485 18.765,7.424c-12.263,12.337 -24.754,8.659 -37.31,0.534Zm627.647,0c-6.157,-4.315 -12.333,-7.418 -18.544,-7.958c-6.212,-0.539 -12.461,1.485 -18.765,7.424c12.262,12.337 24.754,8.659 37.309,0.534Zm-61.168,-35.315c6.816,3.175 12.591,6.971 16.164,12.081c3.573,5.11 4.945,11.533 2.954,19.963c-16.816,-4.451 -19.876,-17.108 -19.118,-32.044Zm-505.311,-0c-6.816,3.175 -12.591,6.971 -16.164,12.081c-3.573,5.11 -4.945,11.533 -2.954,19.963c16.816,-4.451 19.876,-17.108 19.118,-32.044Zm-73.839,7.318c6.51,-3.762 12.932,-6.315 19.167,-6.312c6.236,0.004 12.284,2.565 18.047,9.031c-13.291,11.222 -25.414,6.469 -37.214,-2.719Zm652.99,-0c-6.511,-3.762 -12.933,-6.315 -19.168,-6.312c-6.235,0.004 -12.284,2.565 -18.047,9.031c13.291,11.222 25.415,6.469 37.215,-2.719Zm-64.014,-29.85c7.067,2.569 13.151,5.847 17.156,10.626c4.005,4.779 5.931,11.059 4.682,19.63c-17.14,-2.968 -21.291,-15.311 -21.838,-30.256Zm-524.963,0c-7.067,2.569 -13.151,5.847 -17.155,10.626c-4.005,4.779 -5.932,11.059 -4.683,19.63c17.14,-2.968 21.292,-15.311 21.838,-30.256Zm-74.196,0.855c6.813,-3.181 13.433,-5.165 19.645,-4.617c6.211,0.547 12.013,3.625 17.191,10.569c-14.219,10.021 -25.882,4.229 -36.836,-5.952Zm673.355,-0c-6.813,-3.181 -13.433,-5.165 -19.644,-4.617c-6.211,0.547 -12.014,3.625 -17.191,10.569c14.218,10.021 25.881,4.229 36.835,-5.952Zm-606.984,-24.158c-7.264,1.944 -13.61,4.679 -18.016,9.091c-4.407,4.412 -6.873,10.499 -6.376,19.147c17.334,-1.463 22.545,-13.397 24.392,-28.238Zm540.613,0c7.264,1.944 13.61,4.679 18.017,9.091c4.406,4.412 6.872,10.499 6.375,19.147c-17.333,-1.463 -22.545,-13.397 -24.392,-28.238Zm73.989,-5.615c-7.065,-2.574 -13.833,-3.974 -19.973,-2.887c-6.14,1.086 -11.651,4.659 -16.204,12.027c15.037,8.744 26.152,1.957 36.177,-9.14Zm-688.59,0c7.065,-2.574 13.832,-3.974 19.972,-2.887c6.14,1.086 11.652,4.659 16.205,12.027c-15.038,8.744 -26.152,1.957 -36.177,-9.14Zm620.365,-18.281c7.406,1.303 13.967,3.475 18.741,7.486c4.774,4.011 7.761,9.861 8.019,18.518c-17.394,0.054 -23.626,-11.381 -26.76,-26.004Zm-552.141,0c-7.406,1.303 -13.966,3.475 -18.74,7.486c-4.774,4.011 -7.761,9.861 -8.02,18.518c17.395,0.054 23.627,-11.381 26.76,-26.004Zm-73.217,-12.042c7.262,-1.949 14.126,-2.753 20.148,-1.135c6.021,1.617 11.201,5.656 15.094,13.393c-15.742,7.4 -26.223,-0.329 -35.242,-12.258Zm698.576,0c-7.262,-1.949 -14.126,-2.753 -20.148,-1.135c-6.022,1.617 -11.201,5.656 -15.095,13.393c15.743,7.4 26.223,-0.329 35.243,-12.258Zm-629.019,-12.265c-7.491,0.653 -14.216,2.245 -19.321,5.824c-5.105,3.58 -8.591,9.147 -9.603,17.749c17.324,1.569 24.528,-9.279 28.924,-23.573Zm559.461,0c7.491,0.653 14.216,2.245 19.321,5.824c5.106,3.58 8.591,9.147 9.604,17.749c-17.324,1.569 -24.529,-9.279 -28.925,-23.573Zm71.889,-18.378c-7.404,-1.308 -14.312,-1.511 -20.17,0.625c-5.858,2.136 -10.666,6.611 -13.87,14.658c16.328,6 26.094,-2.614 34.04,-15.283Zm-703.239,0c7.405,-1.308 14.313,-1.511 20.17,0.625c5.858,2.136 10.666,6.611 13.87,14.658c-16.327,6 -26.094,-2.614 -34.04,-15.283Zm632.877,-6.156c7.519,-0.003 14.358,0.997 19.756,4.118c5.397,3.121 9.355,8.363 11.113,16.844c-17.121,3.073 -25.244,-7.105 -30.869,-20.962Zm-562.515,0c-7.519,-0.003 -14.357,0.997 -19.755,4.118c-5.398,3.121 -9.356,8.363 -11.114,16.844c17.121,3.073 25.244,-7.105 30.869,-20.962Zm0.617,-24.573c-7.49,-0.659 -14.39,-0.258 -20.039,2.38c-5.649,2.639 -10.049,7.516 -12.539,15.811c16.788,4.554 25.767,-4.878 32.578,-18.191Zm-70.631,-0c7.491,-0.659 14.39,-0.258 20.039,2.38c5.65,2.639 10.049,7.516 12.54,15.811c-16.789,4.554 -25.767,-4.878 -32.579,-18.191Zm631.912,-0c7.491,-0.659 14.39,-0.258 20.039,2.38c5.65,2.639 10.049,7.516 12.54,15.811c-16.789,4.554 -25.767,-4.878 -32.579,-18.191Zm70.631,-0c-7.49,-0.659 -14.39,-0.258 -20.039,2.38c-5.649,2.639 -10.049,7.516 -12.539,15.811c16.788,4.554 25.767,-4.878 32.578,-18.191Zm-629.156,-24.427c-7.404,-1.308 -14.312,-1.511 -20.17,0.625c-5.858,2.136 -10.666,6.612 -13.87,14.659c16.328,5.999 26.095,-2.614 34.04,-15.284Zm555.769,0c7.404,-1.308 14.312,-1.511 20.17,0.625c5.858,2.136 10.666,6.612 13.87,14.659c-16.328,5.999 -26.094,-2.614 -34.04,-15.284Zm-626.131,-6.155c7.52,-0.003 14.358,0.997 19.756,4.117c5.398,3.121 9.355,8.363 11.113,16.844c-17.121,3.074 -25.244,-7.105 -30.869,-20.961Zm696.493,-0c-7.519,-0.003 -14.357,0.997 -19.755,4.117c-5.398,3.121 -9.356,8.363 -11.114,16.844c17.121,3.074 25.244,-7.105 30.869,-20.961Zm-621.256,-17.938c-7.262,-1.949 -14.126,-2.753 -20.148,-1.135c-6.022,1.617 -11.201,5.656 -15.094,13.393c15.742,7.4 26.222,-0.329 35.242,-12.258Zm546.019,0c7.262,-1.949 14.126,-2.753 20.148,-1.135c6.022,1.617 11.201,5.656 15.095,13.393c-15.743,7.4 -26.223,-0.329 -35.243,-12.258Zm69.558,-12.265c-7.491,0.653 -14.216,2.245 -19.321,5.824c-5.106,3.58 -8.591,9.147 -9.604,17.749c17.324,1.569 24.529,-9.278 28.925,-23.573Zm-685.135,0c7.491,0.653 14.216,2.245 19.322,5.824c5.105,3.58 8.591,9.147 9.603,17.749c-17.324,1.569 -24.529,-9.278 -28.925,-23.573Zm76.514,-11.311c-7.065,-2.575 -13.832,-3.974 -19.972,-2.887c-6.14,1.086 -11.652,4.658 -16.205,12.027c15.038,8.743 26.152,1.957 36.177,-9.14Zm532.107,-0c7.065,-2.575 13.833,-3.974 19.973,-2.887c6.139,1.086 11.651,4.658 16.204,12.027c-15.038,8.743 -26.152,1.957 -36.177,-9.14Zm68.224,-18.281c-7.405,1.303 -13.966,3.475 -18.74,7.486c-4.774,4.011 -7.761,9.86 -8.02,18.518c17.395,0.053 23.627,-11.381 26.76,-26.004Zm-668.555,0c7.405,1.303 13.966,3.475 18.74,7.486c4.774,4.011 7.761,9.86 8.02,18.518c-17.395,0.053 -23.627,-11.381 -26.76,-26.004Zm77.208,-4.6c-6.813,-3.18 -13.433,-5.164 -19.644,-4.617c-6.211,0.548 -12.014,3.626 -17.191,10.569c14.218,10.021 25.881,4.229 36.835,-5.952Zm514.139,0c6.813,-3.18 13.433,-5.164 19.645,-4.617c6.211,0.548 12.013,3.626 17.191,10.569c-14.219,10.021 -25.882,4.229 -36.836,-5.952Zm-580.51,-24.157c7.264,1.943 13.61,4.679 18.017,9.091c4.406,4.411 6.872,10.499 6.375,19.146c-17.333,-1.463 -22.545,-13.397 -24.392,-28.237Zm646.881,-0c-7.264,1.943 -13.61,4.679 -18.016,9.091c-4.407,4.411 -6.873,10.499 -6.376,19.146c17.334,-1.463 22.545,-13.397 24.392,-28.237Zm-77.316,2.147c6.511,-3.763 12.933,-6.316 19.168,-6.312c6.235,0.004 12.284,2.565 18.047,9.031c-13.291,11.222 -25.415,6.468 -37.215,-2.719Zm-492.249,-0c-6.511,-3.763 -12.933,-6.316 -19.168,-6.312c-6.235,0.004 -12.283,2.565 -18.046,9.031c13.29,11.222 25.414,6.468 37.214,-2.719Zm-64.013,-29.85c7.066,2.569 13.15,5.847 17.155,10.626c4.005,4.779 5.931,11.058 4.683,19.629c-17.14,-2.968 -21.292,-15.31 -21.838,-30.255Zm620.276,-0c-7.067,2.569 -13.151,5.847 -17.156,10.626c-4.005,4.779 -5.931,11.058 -4.682,19.629c17.14,-2.968 21.291,-15.31 21.838,-30.255Zm-543.442,8.877c-6.158,-4.315 -12.333,-7.419 -18.545,-7.958c-6.212,-0.54 -12.46,1.484 -18.765,7.423c12.263,12.338 24.754,8.659 37.31,0.535Zm466.607,-0c6.158,-4.315 12.333,-7.419 18.545,-7.958c6.212,-0.54 12.46,1.484 18.765,7.423c-12.262,12.338 -24.754,8.659 -37.31,0.535Zm-527.775,-35.316c6.816,3.175 12.591,6.972 16.164,12.081c3.573,5.11 4.945,11.534 2.954,19.963c-16.816,-4.45 -19.876,-17.108 -19.118,-32.044Zm588.944,0c-6.816,3.175 -12.591,6.972 -16.165,12.081c-3.573,5.11 -4.944,11.534 -2.953,19.963c16.816,-4.45 19.876,-17.108 19.118,-32.044Zm-513.176,15.54c-5.758,-4.835 -11.639,-8.465 -17.78,-9.544c-6.142,-1.079 -12.543,0.393 -19.341,5.76c11.14,13.359 23.905,10.783 37.121,3.784Zm437.407,0c5.758,-4.835 11.64,-8.465 17.781,-9.544c6.141,-1.079 12.542,0.393 19.34,5.76c-11.14,13.359 -23.905,10.783 -37.121,3.784Zm57.858,-40.512c-6.514,3.757 -11.936,8.042 -15.05,13.444c-3.114,5.402 -3.921,11.92 -1.203,20.144c16.364,-5.899 18.31,-18.775 16.253,-33.588Zm-553.122,-0c6.513,3.757 11.935,8.042 15.049,13.444c3.115,5.402 3.921,11.92 1.203,20.144c-16.364,-5.899 -18.309,-18.775 -16.252,-33.588Zm478.996,22.084c5.315,-5.319 10.857,-9.447 16.881,-11.057c6.024,-1.61 12.529,-0.702 19.769,4.052c-9.933,14.279 -22.874,12.826 -36.65,7.005Zm-404.871,0c-5.315,-5.319 -10.857,-9.447 -16.881,-11.057c-6.023,-1.61 -12.529,-0.702 -19.769,4.052c9.934,14.279 22.875,12.826 36.65,7.005Zm458.977,-45.4c-6.161,4.31 -11.189,9.051 -13.82,14.704c-2.632,5.653 -2.867,12.217 0.557,20.172c15.788,-7.303 16.604,-20.299 13.263,-34.876Zm-513.083,-0c6.161,4.31 11.189,9.051 13.821,14.704c2.631,5.653 2.866,12.217 -0.558,20.172c-15.788,-7.303 -16.603,-20.299 -13.263,-34.876Zm435.382,-70.527l-23.565,21.218l-27.461,-15.855l12.897,28.968l-23.564,21.218l31.535,-3.315l12.898,28.968l6.593,-31.016l31.535,-3.315l-27.461,-15.854l6.593,-31.017Zm-357.681,0l23.565,21.218l27.461,-15.855l-12.897,28.968l23.565,21.218l-31.536,-3.315l-12.898,28.968l-6.592,-31.016l-31.536,-3.315l27.461,-15.854l-6.593,-31.017Zm86.735,-35.926l17.27,26.594l30.629,-8.207l-19.956,24.642l17.27,26.594l-29.603,-11.364l-19.955,24.643l1.659,-31.666l-29.603,-11.363l30.629,-8.207l1.66,-31.666Zm184.212,-0l-17.27,26.594l-30.629,-8.207l19.955,24.642l-17.27,26.594l29.603,-11.364l19.956,24.643l-1.66,-31.666l29.603,-11.363l-30.629,-8.207l-1.659,-31.666Zm-91.135,-12.254l9.798,30.157l31.71,0l-25.654,18.639l9.799,30.157l-25.653,-18.638l-25.654,18.638l9.799,-30.157l-25.653,-18.639l31.709,0l9.799,-30.157Z" style="fill:#008cff;"/><g transform="matrix(4.16608,-0.0700842,0.0700842,4.16608,-1165.84,-688.904)"><g transform="matrix(0.836846,-0.547439,0.547439,0.836846,-71.5748,223.871)"><g transform="matrix(26,0,0,26,339.794,232.015)"><path d="M0.172,-0.598l0,0.598l-0.071,-0l0,-0.598l-0.089,0l-0,-0.068l0.246,-0l0,0.068l-0.086,-0Z" style="fill:#fff;fill-rule:nonzero;"/></g></g><g transform="matrix(0.954802,-0.297242,0.297242,0.954802,-52.1189,113.02)"><g transform="matrix(26,0,0,26,345.576,227.889)"><path d="M0.333,-0l-0.067,-0l-0.053,-0.432l-0.059,0.432l-0.068,-0l-0.075,-0.666l0.071,0l0.043,0.478l0.065,-0.478l0.059,0l0.056,0.478l0.049,-0.478l0.067,0l-0.088,0.666Z" style="fill:#fff;fill-rule:nonzero;"/></g></g><g transform="matrix(0.998462,-0.0554396,0.0554396,0.998462,-11.9191,20.1363)"><g transform="matrix(26,0,0,26,356.972,224.896)"><rect x="0.037" y="-0.666" width="0.073" height="0.666" style="fill:#fff;fill-rule:nonzero;"/></g></g><g transform="matrix(0.988737,0.149663,-0.149663,0.988737,37.6879,-51.6685)"><g transform="matrix(26,0,0,26,362.131,224.565)"><path d="M0.037,-0l0,-0.666l0.072,0l-0,0.597l0.135,0l-0,0.069l-0.207,0Z" style="fill:#fff;fill-rule:nonzero;"/></g></g><g transform="matrix(0.939999,0.341176,-0.341176,0.939999,99.335,-112.74)"><g transform="matrix(26,0,0,26,370.199,226.05)"><rect x="0.037" y="-0.666" width="0.073" height="0.666" style="fill:#fff;fill-rule:nonzero;"/></g></g><g transform="matrix(0.843773,0.536701,-0.536701,0.843773,180.751,-165.659)"><g transform="matrix(26,0,0,26,374.926,227.645)"><path d="M0.287,-0.129c0,0.041 -0.012,0.074 -0.035,0.1c-0.022,0.026 -0.054,0.039 -0.093,0.039c-0.039,-0 -0.07,-0.013 -0.094,-0.039c-0.023,-0.026 -0.034,-0.059 -0.034,-0.1l0,-0.408c0,-0.02 0.003,-0.038 0.009,-0.055c0.006,-0.017 0.014,-0.032 0.026,-0.044c0.01,-0.013 0.024,-0.022 0.04,-0.029c0.016,-0.007 0.034,-0.011 0.053,-0.011c0.019,0 0.037,0.004 0.053,0.011c0.016,0.007 0.03,0.016 0.041,0.029c0.011,0.012 0.019,0.027 0.025,0.044c0.006,0.017 0.009,0.035 0.009,0.055l0,0.408Zm-0.071,-0.418c-0,-0.017 -0.005,-0.032 -0.015,-0.043c-0.009,-0.011 -0.023,-0.017 -0.042,-0.017c-0.019,0 -0.033,0.006 -0.042,0.017c-0.009,0.011 -0.014,0.026 -0.014,0.043l0,0.428c0,0.017 0.005,0.032 0.014,0.043c0.009,0.011 0.023,0.017 0.042,0.017c0.019,-0 0.033,-0.006 0.043,-0.017c0.009,-0.011 0.014,-0.026 0.014,-0.043l-0,-0.428Z" style="fill:#fff;fill-rule:nonzero;"/></g></g><g transform="matrix(0.680302,0.732932,-0.732932,0.680302,314.711,-141.832)"><g transform="matrix(26,0,0,26,319.935,289.833)"><path d="M0.289,-0.147c0,0.047 -0.009,0.083 -0.028,0.108c-0.019,0.026 -0.051,0.039 -0.094,0.039l-0.13,-0l0,-0.666l0.13,0c0.043,0 0.075,0.013 0.094,0.038c0.019,0.026 0.028,0.062 0.028,0.109l0,0.372Zm-0.072,-0.377c0,-0.025 -0.004,-0.044 -0.012,-0.055c-0.008,-0.011 -0.021,-0.017 -0.04,-0.017l-0.055,0l0,0.526l0.055,0c0.019,0 0.032,-0.006 0.04,-0.017c0.008,-0.011 0.012,-0.029 0.012,-0.054l0,-0.383Z" style="fill:#fff;fill-rule:nonzero;"/></g></g><g transform="matrix(0.819611,0.57292,-0.57292,0.819611,229.954,-134.21)"><g transform="matrix(26,0,0,26,328.104,298.065)"><path d="M0.037,-0l0,-0.666l0.212,0l0,0.067l-0.14,0l0,0.222l0.101,0l0,0.065l-0.101,0l0,0.245l0.14,0l0,0.067l-0.212,-0Z" style="fill:#fff;fill-rule:nonzero;"/></g></g><g transform="matrix(0.91759,0.397527,-0.397527,0.91759,148.488,-108.812)"><g transform="matrix(26,0,0,26,336.686,303.732)"><path d="M0.182,-0l-0.073,-0l-0.098,-0.666l0.075,0l0.061,0.509l0.068,-0.509l0.07,0l-0.103,0.666Z" style="fill:#fff;fill-rule:nonzero;"/></g></g><g transform="matrix(0.980125,0.198383,-0.198383,0.980125,67.9422,-62.6829)"><g transform="matrix(26,0,0,26,346.801,307.736)"><path d="M0.037,-0l0,-0.666l0.212,0l0,0.067l-0.14,0l0,0.222l0.101,0l0,0.065l-0.101,0l0,0.245l0.14,0l0,0.067l-0.212,-0Z" style="fill:#fff;fill-rule:nonzero;"/></g></g><g transform="matrix(0.999995,0.00317132,-0.00317132,0.999995,0.983287,-1.13039)"><g transform="matrix(26,0,0,26,356.931,309.49)"><path d="M0.037,-0l0,-0.666l0.072,0l-0,0.597l0.135,0l-0,0.069l-0.207,0Z" style="fill:#fff;fill-rule:nonzero;"/></g></g><g transform="matrix(0.9815,-0.191463,0.191463,0.9815,-52.4434,75.9214)"><g transform="matrix(26,0,0,26,366.643,309.336)"><path d="M0.287,-0.129c0,0.041 -0.012,0.074 -0.035,0.1c-0.022,0.026 -0.054,0.039 -0.093,0.039c-0.039,-0 -0.07,-0.013 -0.094,-0.039c-0.023,-0.026 -0.034,-0.059 -0.034,-0.1l0,-0.408c0,-0.02 0.003,-0.038 0.009,-0.055c0.006,-0.017 0.014,-0.032 0.026,-0.044c0.01,-0.013 0.024,-0.022 0.04,-0.029c0.016,-0.007 0.034,-0.011 0.053,-0.011c0.019,0 0.037,0.004 0.053,0.011c0.016,0.007 0.03,0.016 0.041,0.029c0.011,0.012 0.019,0.027 0.025,0.044c0.006,0.017 0.009,0.035 0.009,0.055l0,0.408Zm-0.071,-0.418c-0,-0.017 -0.005,-0.032 -0.015,-0.043c-0.009,-0.011 -0.023,-0.017 -0.042,-0.017c-0.019,0 -0.033,0.006 -0.042,0.017c-0.009,0.011 -0.014,0.026 -0.014,0.043l0,0.428c0,0.017 0.005,0.032 0.014,0.043c0.009,0.011 0.023,0.017 0.042,0.017c0.019,-0 0.033,-0.006 0.043,-0.017c0.009,-0.011 0.014,-0.026 0.014,-0.043l-0,-0.428Z" style="fill:#fff;fill-rule:nonzero;"/></g></g><g transform="matrix(0.914215,-0.40523,0.40523,0.914215,-91.8881,179.457)"><g transform="matrix(26,0,0,26,377.914,306.758)"><path d="M0.28,-0.403c0,0.022 -0.003,0.041 -0.009,0.056c-0.006,0.015 -0.014,0.028 -0.024,0.038c-0.01,0.009 -0.022,0.016 -0.036,0.021c-0.013,0.004 -0.028,0.006 -0.043,0.006l-0.059,0l-0,0.282l-0.072,-0l-0,-0.666l0.131,0c0.015,0 0.03,0.002 0.043,0.007c0.014,0.004 0.026,0.011 0.036,0.02c0.01,0.01 0.018,0.023 0.024,0.038c0.006,0.015 0.009,0.034 0.009,0.056l0,0.142Zm-0.073,-0.147c-0,-0.032 -0.013,-0.048 -0.038,-0.048l-0.06,0l-0,0.251l0.06,-0c0.025,-0 0.038,-0.016 0.038,-0.049l0,-0.154Z" style="fill:#fff;fill-rule:nonzero;"/></g></g><g transform="matrix(0.813122,-0.582094,0.582094,0.813122,-103.333,282.18)"><g transform="matrix(26,0,0,26,387.804,302.022)"><path d="M0.037,-0l0,-0.666l0.212,0l0,0.067l-0.14,0l0,0.222l0.101,0l0,0.065l-0.101,0l0,0.245l0.14,0l0,0.067l-0.212,-0Z" style="fill:#fff;fill-rule:nonzero;"/></g></g><g transform="matrix(0.673725,-0.738982,0.738982,0.673725,-89.3959,389.195)"><g transform="matrix(26,0,0,26,396.047,295.834)"><path d="M0.278,0.006c-0.024,0 -0.041,-0.005 -0.052,-0.015c-0.01,-0.01 -0.015,-0.029 -0.015,-0.057l-0,-0.172c-0,-0.017 -0.004,-0.031 -0.012,-0.041c-0.007,-0.009 -0.019,-0.014 -0.034,-0.014l-0.055,0l-0,0.293l-0.073,0l-0,-0.666l0.132,0c0.015,0 0.03,0.002 0.043,0.006c0.014,0.004 0.026,0.011 0.036,0.021c0.01,0.009 0.018,0.022 0.023,0.037c0.006,0.015 0.009,0.034 0.009,0.056l-0,0.127c-0,0.025 -0.004,0.045 -0.012,0.061c-0.008,0.016 -0.023,0.027 -0.044,0.034c0.021,0.007 0.035,0.019 0.044,0.036c0.009,0.017 0.014,0.037 0.014,0.058l-0,0.161c-0,0.009 0.001,0.016 0.003,0.02c0.003,0.004 0.008,0.006 0.015,0.006l-0,0.049l-0.022,0Zm-0.07,-0.557c-0,-0.031 -0.013,-0.047 -0.04,-0.047l-0.058,0l-0,0.242l0.052,0c0.014,0 0.025,-0.005 0.033,-0.014c0.009,-0.01 0.013,-0.024 0.013,-0.041l-0,-0.14Z" style="fill:#fff;fill-rule:nonzero;"/></g></g></g><path d="M238.554,309.667l0,38.166l17.5,0l0,10.834l-17.5,-0l0,51l-12.166,-0l-0,-111l34.5,-0l-0,11l-22.334,-0Z" style="fill:#fff;fill-rule:nonzero;stroke:#fff;stroke-width:5.68px;"/><path d="M297.721,409.667l-0,-111l12,-0l-0,99.5l22.5,-0l-0,11.5l-34.5,-0Z" style="fill:#fff;fill-rule:nonzero;stroke:#fff;stroke-width:5.68px;"/><path d="M369.054,409.667l0,-111l35.334,-0l-0,11.166l-23.334,0l0,37l16.834,0l-0,10.834l-16.834,-0l0,40.833l23.334,0l-0,11.167l-35.334,-0Z" style="fill:#fff;fill-rule:nonzero;stroke:#fff;stroke-width:5.68px;"/><path d="M471.554,409.667l-11,-43l-11.5,43l-11.666,-0l16.5,-55.334l-15.5,-55.666l12.166,-0l10.5,43l11,-43l11.667,-0l-15.833,53.666l16,57.334l-12.334,-0Z" style="fill:#fff;fill-rule:nonzero;stroke:#fff;stroke-width:5.68px;"/><circle cx="355.138" cy="359.622" r="255.633" style="fill:none;stroke:#fff;stroke-width:5.06px;stroke-linejoin:round;stroke-miterlimit:1.5;"/></g></svg>